<svg width="169" height="104" viewBox="0 0 169 104" fill="none" xmlns="http://www.w3.org/2000/svg">
<path d="M101.974 92.0778L95.8781 93.7194L102.018 89.929C101.886 83.8864 99.7852 77.6207 99.7852 77.6207C99.7852 77.6207 86.663 81.4369 83.219 88.0452C79.7751 94.6536 82.486 99.0162 87.3135 101.552C92.1409 104.087 97.2568 103.835 100.701 97.2265C101.467 95.7556 101.847 93.9679 101.974 92.0778Z" fill="#F2F2F2"/>
<path d="M94.7127 93.3695L94.543 93.6952C92.5505 97.4714 90.3748 100.091 88.0425 101.516C88.0089 101.538 87.9745 101.556 87.9409 101.578L87.8457 101.419L87.756 101.265C90.3114 99.746 92.456 96.8282 94.1948 93.535C94.2519 93.4294 94.3098 93.3222 94.3645 93.2133C95.0883 91.8127 95.7402 90.3538 96.3196 88.9081C96.3655 88.7966 96.4105 88.6827 96.4556 88.5688C97.2106 86.6567 97.8401 84.7814 98.3447 83.1301C98.3809 83.0136 98.4155 82.8962 98.4492 82.7804C99.2918 79.9818 99.7593 77.8797 99.8594 77.4127C99.8726 77.3559 99.8789 77.3243 99.8806 77.317L100.056 77.3536L100.058 77.3529L100.235 77.3903C100.234 77.3976 100.213 77.5039 100.169 77.6984C100.008 78.4272 99.551 80.3953 98.7979 82.9122C98.7634 83.0255 98.7288 83.1429 98.6926 83.2594C98.2846 84.5999 97.7969 86.0814 97.2273 87.6062C97.0849 87.9894 96.9402 88.3652 96.7931 88.7337C96.7497 88.8485 96.7046 88.9625 96.6588 89.0739C96.0326 90.6367 95.3839 92.0686 94.7127 93.3695Z" fill="white"/>
<path d="M98.7979 82.9122C98.6827 82.8702 98.5659 82.8273 98.4492 82.7804C98.132 82.6534 97.8215 82.5102 97.5189 82.3514C96.2284 81.6758 95.1054 80.7182 94.2325 79.5491C94.1205 79.5992 94.0085 79.6492 93.8941 79.7C94.8056 80.9427 95.9879 81.9599 97.3508 82.6739C97.6739 82.8434 98.0056 82.9957 98.3447 83.1301C98.4598 83.1762 98.5766 83.2191 98.6927 83.2595C99.6477 83.5981 100.648 83.7892 101.661 83.8262C101.638 83.7012 101.616 83.5787 101.594 83.4587C100.641 83.4157 99.6982 83.2316 98.7979 82.9122Z" fill="white"/>
<path d="M96.7931 88.7338C96.6789 88.682 96.5664 88.627 96.4556 88.5688C96.421 88.5527 96.3857 88.5341 96.3519 88.5164C94.9546 87.7826 93.7548 86.7204 92.8547 85.4205C91.9547 84.1206 91.3811 82.6215 91.1829 81.051C91.069 81.1124 90.9552 81.1737 90.8421 81.2376C91.067 82.8395 91.6688 84.3645 92.5978 85.6864C93.5267 87.0083 94.756 88.089 96.1839 88.8389C96.2288 88.8625 96.2738 88.8862 96.3196 88.9082C96.4329 88.9656 96.5454 89.0206 96.6588 89.074C98.4198 89.8865 100.377 90.1727 102.296 89.8983C102.294 89.7762 102.292 89.654 102.289 89.531C100.418 89.8077 98.5086 89.5306 96.7931 88.7338Z" fill="white"/>
<path d="M94.7127 93.3695C94.5953 93.3201 94.4795 93.2675 94.3645 93.2133C94.2415 93.1548 94.1193 93.0948 93.9989 93.0315C92.1224 92.0432 90.6153 90.4714 89.7031 88.5513C88.791 86.6312 88.523 84.4662 88.9392 82.3804C88.7988 82.473 88.6593 82.5641 88.5221 82.6584C88.1749 84.7751 88.5009 86.9478 89.4539 88.8678C90.4069 90.7878 91.9384 92.3576 93.8308 93.354C93.9512 93.4173 94.0726 93.479 94.1948 93.5349C94.3105 93.5916 94.4263 93.6442 94.543 93.6952C96.9071 94.7097 99.567 94.7843 101.984 93.904C102.012 93.767 102.035 93.629 102.059 93.4894C99.6877 94.4099 97.0527 94.3669 94.7127 93.3695Z" fill="white"/>
<path d="M21.9212 92.6509L28.0171 94.2925L21.877 90.5021C22.0091 84.4595 24.1101 78.1938 24.1101 78.1938C24.1101 78.1938 37.2323 82.01 40.6762 88.6183C44.1202 95.2267 41.4093 99.5893 36.5818 102.125C31.7544 104.66 26.6384 104.408 23.1945 97.7996C22.4279 96.3287 22.0486 94.541 21.9212 92.6509Z" fill="#F2F2F2"/>
<path d="M29.1825 93.9426L29.3523 94.2683C31.3448 98.0445 33.5205 100.665 35.8527 102.089C35.8864 102.111 35.9208 102.13 35.9544 102.151L36.0496 101.992L36.1392 101.838C33.5839 100.319 31.4393 97.4013 29.7005 94.1081C29.6434 94.0025 29.5855 93.8953 29.5308 93.7864C28.807 92.3858 28.1551 90.9269 27.5757 89.4813C27.5298 89.3698 27.4848 89.2558 27.4397 89.1419C26.6847 87.2298 26.0552 85.3545 25.5506 83.7032C25.5144 83.5867 25.4798 83.4693 25.4461 83.3535C24.6035 80.555 24.136 78.4528 24.0359 77.9858C24.0227 77.9291 24.0164 77.8974 24.0147 77.8901L23.8394 77.9267L23.8369 77.926L23.66 77.9634C23.6618 77.9707 23.6824 78.077 23.7265 78.2715C23.8874 79.0004 24.3442 80.9684 25.0974 83.4853C25.1319 83.5986 25.1665 83.716 25.2027 83.8326C25.6107 85.1731 26.0984 86.6545 26.668 88.1793C26.8104 88.5625 26.9551 88.9384 27.1022 89.3068C27.1456 89.4216 27.1907 89.5356 27.2365 89.6471C27.8627 91.2099 28.5114 92.6417 29.1825 93.9426Z" fill="white"/>
<path d="M22.3009 84.0318C22.2796 84.1519 22.2575 84.2744 22.2346 84.3993C23.2468 84.3624 24.2476 84.1713 25.2026 83.8326C25.3187 83.7922 25.4355 83.7494 25.5506 83.7033C25.8897 83.5689 26.2214 83.4166 26.5445 83.247C27.9074 82.5331 29.0897 81.5159 30.0012 80.2732C29.8868 80.2224 29.7748 80.1723 29.6628 80.1223C28.7899 81.2914 27.6669 82.249 26.3764 82.9245C26.0738 83.0834 25.7633 83.2266 25.4461 83.3536C25.3293 83.4005 25.2125 83.4433 25.0974 83.4853C24.1971 83.8047 23.2548 83.9889 22.3009 84.0318Z" fill="white"/>
<path d="M21.6067 90.1042C21.6033 90.2272 21.6015 90.3493 21.5997 90.4715C23.5185 90.7459 25.4754 90.4597 27.2365 89.6471C27.3498 89.5938 27.4624 89.5388 27.5756 89.4814C27.6215 89.4593 27.6664 89.4357 27.7114 89.4121C29.1393 88.6621 30.3686 87.5815 31.2975 86.2596C32.2264 84.9377 32.8283 83.4127 33.0531 81.8108C32.9401 81.7469 32.8262 81.6855 32.7124 81.6241C32.5142 83.1947 31.9406 84.6938 31.0406 85.9937C30.1405 87.2936 28.9407 88.3558 27.5433 89.0896C27.5096 89.1073 27.4743 89.1259 27.4397 89.142C27.3288 89.2002 27.2163 89.2552 27.1021 89.3069C25.3866 90.1038 23.4768 90.3809 21.6067 90.1042Z" fill="white"/>
<path d="M21.8365 94.0626C21.8601 94.2022 21.8829 94.3401 21.9114 94.4772C24.3283 95.3575 26.9881 95.2828 29.3523 94.2684C29.4689 94.2174 29.5848 94.1648 29.7005 94.1081C29.8227 94.0521 29.944 93.9905 30.0645 93.9272C31.9569 92.9308 33.4884 91.361 34.4414 89.441C35.3943 87.5209 35.7204 85.3483 35.3731 83.2316C35.236 83.1373 35.0965 83.0462 34.9561 82.9536C35.3723 85.0394 35.1043 87.2044 34.1921 89.1245C33.28 91.0446 31.7729 92.6164 29.8964 93.6047C29.776 93.668 29.6538 93.728 29.5308 93.7865C29.4158 93.8407 29.3 93.8933 29.1826 93.9427C26.8426 94.9401 24.2076 94.9831 21.8365 94.0626Z" fill="white"/>
<path d="M50.5013 97.2782L54.1305 98.2555L50.4751 95.999C50.5537 92.4017 51.8045 88.6715 51.8045 88.6715C51.8045 88.6715 59.6165 90.9434 61.6667 94.8775C63.717 98.8116 62.1031 101.409 59.2292 102.918C56.3553 104.428 53.3097 104.277 51.2594 100.343C50.803 99.4677 50.5773 98.4035 50.5013 97.2782Z" fill="#F2F2F2"/>
<path d="M54.8242 98.0472L54.9253 98.2411C56.1115 100.489 57.4067 102.049 58.7951 102.897C58.8152 102.91 58.8356 102.921 58.8557 102.934L58.9124 102.839L58.9657 102.748C57.4445 101.843 56.1677 100.106 55.1326 98.1457C55.0986 98.0829 55.0641 98.0191 55.0315 97.9542C54.6006 97.1204 54.2126 96.2519 53.8676 95.3913C53.8403 95.3249 53.8135 95.2571 53.7866 95.1892C53.3371 94.051 52.9624 92.9345 52.662 91.9515C52.6405 91.8821 52.6199 91.8122 52.5998 91.7433C52.0982 90.0772 51.8199 88.8258 51.7603 88.5477C51.7524 88.514 51.7487 88.4951 51.7476 88.4908L51.6433 88.5126L51.6418 88.5121L51.5365 88.5344C51.5375 88.5388 51.5498 88.602 51.5761 88.7178C51.6719 89.1517 51.9438 90.3233 52.3922 91.8217C52.4127 91.8892 52.4333 91.9591 52.4549 92.0285C52.6978 92.8265 52.9881 93.7085 53.3272 94.6162C53.412 94.8443 53.4982 95.0681 53.5857 95.2875C53.6116 95.3558 53.6384 95.4236 53.6657 95.49C54.0385 96.4203 54.4246 97.2728 54.8242 98.0472Z" fill="white"/>
<path d="M50.7274 92.147C50.7147 92.2185 50.7015 92.2914 50.6879 92.3658C51.2905 92.3438 51.8863 92.23 52.4549 92.0284C52.5239 92.0044 52.5935 91.9789 52.662 91.9514C52.8639 91.8714 53.0614 91.7808 53.2537 91.6798C54.0651 91.2548 54.7689 90.6492 55.3116 89.9094C55.2434 89.8792 55.1768 89.8494 55.1101 89.8196C54.5904 90.5156 53.9219 91.0856 53.1536 91.4878C52.9735 91.5824 52.7886 91.6676 52.5998 91.7432C52.5303 91.7712 52.4608 91.7967 52.3922 91.8217C51.8562 92.0118 51.2952 92.1215 50.7274 92.147Z" fill="white"/>
<path d="M50.3142 95.7621C50.3121 95.8353 50.3111 95.908 50.31 95.9807C51.4523 96.1441 52.6173 95.9737 53.6657 95.4899C53.7332 95.4582 53.8002 95.4254 53.8676 95.3912C53.8949 95.3781 53.9217 95.3641 53.9484 95.35C54.7985 94.9035 55.5303 94.2602 56.0833 93.4732C56.6363 92.6863 56.9946 91.7784 57.1285 90.8247C57.0612 90.7867 56.9934 90.7502 56.9257 90.7136C56.8077 91.6486 56.4662 92.5411 55.9304 93.3149C55.3945 94.0888 54.6802 94.7211 53.8484 95.158C53.8283 95.1686 53.8073 95.1796 53.7867 95.1892C53.7207 95.2239 53.6537 95.2566 53.5857 95.2874C52.5644 95.7618 51.4275 95.9268 50.3142 95.7621Z" fill="white"/>
<path d="M50.4509 98.1186C50.465 98.2017 50.4786 98.2839 50.4955 98.3655C51.9344 98.8895 53.5178 98.8451 54.9253 98.2411C54.9947 98.2108 55.0637 98.1795 55.1326 98.1457C55.2053 98.1124 55.2776 98.0757 55.3493 98.038C56.4759 97.4448 57.3876 96.5103 57.9549 95.3673C58.5223 94.2242 58.7164 92.9308 58.5097 91.6707C58.428 91.6145 58.3449 91.5603 58.2614 91.5051C58.5091 92.7469 58.3496 94.0358 57.8066 95.1788C57.2636 96.3219 56.3663 97.2577 55.2492 97.846C55.1775 97.8837 55.1048 97.9194 55.0316 97.9542C54.9631 97.9865 54.8942 98.0178 54.8242 98.0472C53.4312 98.641 51.8625 98.6666 50.4509 98.1186Z" fill="white"/>
<path d="M122.989 64.204L122.973 64.2027C120.087 63.7242 116.88 63.7244 113.17 64.2032H113.169C113.076 64.2043 112.984 64.187 112.899 64.1523C112.813 64.1176 112.735 64.0662 112.669 64.001C112.603 63.9359 112.55 63.8582 112.514 63.7726C112.478 63.687 112.46 63.5951 112.459 63.5022V60.1295C112.459 59.9434 112.533 59.7651 112.664 59.6335C112.795 59.5019 112.973 59.4279 113.158 59.4277C116.425 59.0001 119.734 59.0003 123 59.4284H123.002C123.185 59.4312 123.36 59.5063 123.488 59.6375C123.617 59.7688 123.688 59.9455 123.688 60.1295V63.5022C123.688 63.6882 123.614 63.8666 123.483 63.9982C123.352 64.1297 123.174 64.2038 122.989 64.204Z" fill="white"/>
<path d="M122.989 64.204L122.973 64.2027C120.087 63.7242 116.88 63.7244 113.17 64.2032H113.169C113.076 64.2043 112.984 64.187 112.899 64.1523C112.813 64.1176 112.735 64.0662 112.669 64.001C112.603 63.9359 112.55 63.8582 112.514 63.7726C112.478 63.687 112.46 63.5951 112.459 63.5022V60.1295C112.459 59.9434 112.533 59.7651 112.664 59.6335C112.795 59.5019 112.973 59.4279 113.158 59.4277C116.425 59.0001 119.734 59.0003 123 59.4284H123.002C123.185 59.4312 123.36 59.5063 123.488 59.6375C123.617 59.7688 123.688 59.9455 123.688 60.1295V63.5022C123.688 63.6882 123.614 63.8666 123.483 63.9982C123.352 64.1297 123.174 64.2038 122.989 64.204ZM117.949 59.2987C116.351 59.2958 114.755 59.4024 113.171 59.6178C113.103 59.6167 113.036 59.6292 112.973 59.6543C112.91 59.6795 112.853 59.717 112.804 59.7645C112.756 59.8121 112.717 59.8689 112.69 59.9315C112.664 59.9941 112.65 60.0614 112.649 60.1295V63.5022C112.65 63.6376 112.703 63.7674 112.799 63.8632C112.894 63.9589 113.023 64.0128 113.158 64.0129C116.871 63.5329 120.093 63.5328 122.996 64.0128C123.13 64.0107 123.257 63.956 123.351 63.8605C123.445 63.765 123.497 63.6363 123.497 63.5022V60.1295C123.497 59.9941 123.444 59.8643 123.348 59.7685C123.253 59.6728 123.124 59.6189 122.989 59.6188C121.317 59.4082 119.634 59.3014 117.949 59.2987Z" fill="#8AFF99"/>
<path d="M118.073 62.9922C118.809 62.9922 119.406 62.3935 119.406 61.6549C119.406 60.9163 118.809 60.3175 118.073 60.3175C117.338 60.3175 116.741 60.9163 116.741 61.6549C116.741 62.3935 117.338 62.9922 118.073 62.9922Z" fill="#8AFF99"/>
<path d="M114.648 60.9561H113.506C113.43 60.956 113.358 60.9258 113.304 60.8721C113.251 60.8183 113.22 60.7455 113.22 60.6695V60.2874C113.22 60.2114 113.251 60.1386 113.304 60.0849C113.358 60.0312 113.43 60.0009 113.506 60.0009H114.648C114.723 60.0009 114.796 60.0312 114.85 60.0849C114.903 60.1386 114.933 60.2114 114.933 60.2874V60.6695C114.933 60.7455 114.903 60.8183 114.85 60.8721C114.796 60.9258 114.723 60.956 114.648 60.9561Z" fill="#8AFF99"/>
<path d="M122.641 63.6309H121.499C121.423 63.6308 121.351 63.6006 121.297 63.5468C121.244 63.4931 121.214 63.4203 121.214 63.3443V62.9622C121.214 62.8862 121.244 62.8134 121.297 62.7596C121.351 62.7059 121.423 62.6757 121.499 62.6756H122.641C122.717 62.6757 122.789 62.7059 122.843 62.7596C122.896 62.8134 122.926 62.8862 122.926 62.9622V63.3443C122.926 63.4203 122.896 63.4931 122.843 63.5468C122.789 63.6006 122.717 63.6308 122.641 63.6309Z" fill="#8AFF99"/>
<path d="M121.364 62.809L121.35 62.8018C118.876 61.2341 115.922 59.9825 112.319 58.9754L112.317 58.9748C112.232 58.9397 112.154 58.8879 112.088 58.8224C112.022 58.7569 111.97 58.679 111.935 58.5932C111.899 58.5075 111.881 58.4154 111.881 58.3225C111.881 58.2296 111.899 58.1376 111.935 58.0519L113.242 54.9447C113.314 54.7733 113.451 54.6378 113.623 54.5677C113.794 54.4977 113.987 54.4989 114.158 54.571C117.333 55.4525 120.381 56.7443 123.225 58.414L123.226 58.4145C123.394 58.4886 123.526 58.626 123.593 58.7971C123.661 58.9681 123.658 59.159 123.586 59.3282L122.28 62.4354C122.208 62.6068 122.071 62.7423 121.899 62.8124C121.727 62.8824 121.535 62.8812 121.364 62.809Z" fill="white"/>
<path d="M121.364 62.809L121.35 62.8018C118.876 61.2341 115.922 59.9825 112.319 58.9754L112.317 58.9748C112.232 58.9397 112.154 58.8879 112.088 58.8224C112.022 58.7569 111.97 58.679 111.935 58.5932C111.899 58.5075 111.881 58.4154 111.881 58.3225C111.881 58.2296 111.899 58.1376 111.935 58.0519L113.242 54.9447C113.314 54.7733 113.451 54.6378 113.623 54.5677C113.794 54.4977 113.987 54.4989 114.158 54.571C117.333 55.4525 120.381 56.7443 123.225 58.414L123.226 58.4145C123.394 58.4886 123.526 58.626 123.593 58.7971C123.661 58.9681 123.658 59.159 123.586 59.3282L122.28 62.4354C122.208 62.6068 122.071 62.7423 121.899 62.8124C121.727 62.8824 121.535 62.8812 121.364 62.809ZM118.621 56.3223C117.15 55.6959 115.638 55.171 114.096 54.7512C114.034 54.7238 113.967 54.7089 113.899 54.7075C113.831 54.7061 113.764 54.7182 113.701 54.7431C113.638 54.768 113.58 54.8052 113.531 54.8525C113.483 54.8999 113.444 54.9564 113.417 55.019L112.11 58.1262C112.058 58.251 112.057 58.3915 112.108 58.517C112.159 58.6424 112.257 58.7425 112.381 58.7953C115.988 59.8026 118.956 61.0603 121.445 62.6359C121.569 62.6861 121.707 62.6854 121.831 62.634C121.954 62.5826 122.052 62.4846 122.105 62.3611L123.411 59.2539C123.463 59.1291 123.464 58.9886 123.413 58.8631C123.363 58.7377 123.264 58.6376 123.14 58.5848C121.681 57.7381 120.172 56.9826 118.621 56.3223V56.3223Z" fill="#8AFF99"/>
<path d="M117.823 59.8791C118.559 59.8791 119.155 59.2804 119.155 58.5418C119.155 57.8032 118.559 57.2044 117.823 57.2044C117.087 57.2044 116.491 57.8032 116.491 58.5418C116.491 59.2804 117.087 59.8791 117.823 59.8791Z" fill="#8AFF99"/>
<path d="M114.938 56.5607L113.886 56.1149C113.816 56.0852 113.761 56.0291 113.732 55.9587C113.704 55.8883 113.704 55.8094 113.734 55.7394L113.882 55.3874C113.911 55.3174 113.967 55.2621 114.037 55.2334C114.108 55.2048 114.186 55.2053 114.256 55.2348L115.308 55.6806C115.378 55.7102 115.433 55.7664 115.461 55.8368C115.49 55.9072 115.489 55.986 115.46 56.0561L115.312 56.4081C115.282 56.4781 115.226 56.5334 115.156 56.562C115.086 56.5906 115.008 56.5901 114.938 56.5607Z" fill="#8AFF99"/>
<path d="M121.266 62.1454L120.214 61.6996C120.144 61.67 120.089 61.6138 120.06 61.5434C120.032 61.473 120.032 61.3941 120.062 61.3241L120.21 60.9721C120.239 60.9021 120.295 60.8468 120.365 60.8182C120.435 60.7896 120.514 60.79 120.584 60.8195L121.636 61.2653C121.705 61.2949 121.761 61.3511 121.789 61.4215C121.818 61.4919 121.817 61.5707 121.788 61.6408L121.64 61.9928C121.61 62.0628 121.554 62.1181 121.484 62.1467C121.414 62.1753 121.335 62.1748 121.266 62.1454Z" fill="#8AFF99"/>
<path d="M123.986 60.9627C124.225 60.8179 124.43 60.622 124.587 60.389C124.743 60.156 124.846 59.8914 124.889 59.6139C124.933 59.3364 124.915 59.0528 124.837 58.783C124.759 58.5132 124.624 58.2638 124.44 58.0523L127.81 52.1224L124.283 52.3511L121.623 57.9472C121.29 58.2812 121.09 58.7265 121.062 59.1985C121.034 59.6705 121.179 60.1365 121.47 60.5082C121.761 60.8799 122.178 61.1315 122.642 61.2152C123.105 61.299 123.584 61.2092 123.986 60.9627V60.9627Z" fill="#FFB6B6"/>
<path d="M149.93 101.388H147.596L146.486 92.3533L149.93 92.3535L149.93 101.388Z" fill="#FFB6B6"/>
<path d="M150.525 103.658L143.001 103.658V103.562C143.001 102.783 143.31 102.035 143.859 101.484C144.408 100.933 145.153 100.623 145.93 100.623H145.93L150.525 100.623L150.525 103.658Z" fill="#2F2E41"/>
<path d="M133.943 101.388H131.61L130.5 92.3533L133.944 92.3535L133.943 101.388Z" fill="#FFB6B6"/>
<path d="M134.538 103.658L127.015 103.658V103.562C127.015 102.783 127.323 102.035 127.873 101.484C128.422 100.933 129.167 100.623 129.943 100.623H129.943L134.538 100.623L134.538 103.658Z" fill="#2F2E41"/>
<path d="M127.943 52.3772C127.943 52.3772 127.302 61.5517 128.566 66.1723C129.83 70.7928 130.055 98.7351 130.055 98.7351H134.292L137.964 60.6997L146.43 98.8693L150.465 98.5907L148.252 53.613L127.943 52.3772Z" fill="#2F2E41"/>
<path d="M146.501 21.4502L143.263 19.0776L137.835 20.2639L136.366 23.7682L133.835 25.0282C133.002 25.4425 132.283 26.0535 131.737 26.8086C131.192 27.5638 130.838 28.4406 130.705 29.3636L127.088 54.4342L148.252 53.6129L150.814 24.0874C150.841 23.779 150.806 23.4683 150.711 23.1737C150.616 22.8792 150.463 22.6068 150.262 22.3726C150.06 22.1384 149.813 21.9472 149.537 21.8103C149.26 21.6734 148.959 21.5936 148.651 21.5757L146.501 21.4502Z" fill="#E4E4E4"/>
<path d="M132.495 26.9865L130.541 29.6318L122.027 55.6998L126.018 57.3038L132.408 45.1566L132.495 26.9865Z" fill="#E4E4E4"/>
<path d="M139.494 17.5446C143.071 17.5446 145.971 14.6332 145.971 11.0418C145.971 7.45036 143.071 4.53894 139.494 4.53894C135.916 4.53894 133.016 7.45036 133.016 11.0418C133.016 14.6332 135.916 17.5446 139.494 17.5446Z" fill="#2F2E41"/>
<path d="M139.581 17.8389C142.192 17.8389 144.308 15.7144 144.308 13.0936C144.308 10.4728 142.192 8.34827 139.581 8.34827C136.97 8.34827 134.854 10.4728 134.854 13.0936C134.854 15.7144 136.97 17.8389 139.581 17.8389Z" fill="#FFB9B9"/>
<path d="M143.17 12.4784C140.16 11.3886 139.142 10.719 135.817 12.4784L134.592 7.55737H144.396L143.17 12.4784Z" fill="#2F2E41"/>
<path d="M138.968 8.26039C140.999 8.26039 142.645 6.60796 142.645 4.56959C142.645 2.53121 140.999 0.878784 138.968 0.878784C136.938 0.878784 135.292 2.53121 135.292 4.56959C135.292 6.60796 136.938 8.26039 138.968 8.26039Z" fill="#2F2E41"/>
<path d="M134.592 3.69081C134.592 2.74296 134.956 1.83168 135.608 1.14609C136.26 0.4605 137.15 0.0532539 138.093 0.00887098C138.035 0.00610074 137.977 0 137.918 0C136.943 0 136.008 0.388852 135.318 1.08101C134.629 1.77317 134.241 2.71194 134.241 3.6908C134.241 4.66966 134.629 5.60844 135.318 6.30059C136.008 6.99275 136.943 7.38161 137.918 7.38161C137.977 7.38161 138.035 7.37551 138.093 7.37274C137.15 7.32835 136.26 6.9211 135.608 6.23552C134.956 5.54993 134.592 4.63866 134.592 3.69081Z" fill="#2F2E41"/>
<path opacity="0.1" d="M148.082 28.4879L146.763 41.6866L142.105 50.902L148.082 28.4879Z" fill="black"/>
<path d="M8.65935 69.1102H7.51746V70.0654H8.65935V69.1102Z" fill="#F0F0F0"/>
<path d="M116.669 70.0654H114.419V69.1102H116.669V70.0654ZM112.169 70.0654H109.918V69.1102H112.169V70.0654ZM107.668 70.0654H105.418V69.1102H107.668V70.0654ZM103.168 70.0654H100.917V69.1102H103.168V70.0654ZM98.6673 70.0654H96.4172V69.1102H98.6673V70.0654ZM94.1669 70.0654H91.9167V69.1102H94.1669L94.1669 70.0654ZM89.6666 70.0654H87.4164V69.1102H89.6666V70.0654ZM85.1661 70.0654H82.916V69.1102H85.1661V70.0654ZM80.6657 70.0654H78.4156V69.1102H80.6657V70.0654ZM76.1653 70.0654H73.9151V69.1102H76.1653L76.1653 70.0654ZM71.665 70.0654H69.4147V69.1102H71.665L71.665 70.0654ZM67.1646 70.0654H64.9143V69.1102H67.1646L67.1646 70.0654ZM62.6642 70.0654H60.414V69.1102H62.6642L62.6642 70.0654ZM58.1637 70.0654H55.9136V69.1102H58.1637L58.1637 70.0654ZM53.6633 70.0654H51.4132V69.1102H53.6633L53.6633 70.0654ZM49.1629 70.0654H46.9127V69.1102H49.163L49.1629 70.0654ZM44.6625 70.0654H42.4123V69.1102H44.6626L44.6625 70.0654ZM40.1622 70.0654H37.912V69.1102H40.1622L40.1622 70.0654ZM35.6617 70.0654H33.4116V69.1102H35.6617L35.6617 70.0654ZM31.1613 70.0654H28.9112V69.1102H31.1613L31.1613 70.0654ZM26.6609 70.0654H24.4108V69.1102H26.661L26.6609 70.0654ZM22.1605 70.0654H19.9104V69.1102H22.1606L22.1605 70.0654ZM17.6601 70.0654H15.41V69.1102H17.6602L17.6601 70.0654ZM13.1597 70.0654H10.9096V69.1102H13.1598L13.1597 70.0654Z" fill="#F0F0F0"/>
<path d="M8.65935 44.8467H7.51746V45.8019H8.65935V44.8467Z" fill="#F0F0F0"/>
<path d="M116.669 45.8019H114.419V44.8467H116.669V45.8019ZM112.169 45.8019H109.918V44.8467H112.169V45.8019ZM107.668 45.8019H105.418V44.8467H107.668V45.8019ZM103.168 45.8019H100.917V44.8467H103.168V45.8019ZM98.6673 45.8019H96.4172V44.8467H98.6673V45.8019ZM94.1669 45.8019H91.9167V44.8467H94.1669L94.1669 45.8019ZM89.6666 45.8019H87.4164V44.8467H89.6666V45.8019ZM85.1661 45.8019H82.916V44.8467H85.1661V45.8019ZM80.6657 45.8019H78.4156V44.8467H80.6657V45.8019ZM76.1653 45.8019H73.9151V44.8467H76.1653L76.1653 45.8019ZM71.665 45.8019H69.4147V44.8467H71.665L71.665 45.8019ZM67.1646 45.8019H64.9143V44.8467H67.1646L67.1646 45.8019ZM62.6642 45.8019H60.414V44.8467H62.6642L62.6642 45.8019ZM58.1637 45.8019H55.9136V44.8467H58.1637L58.1637 45.8019ZM53.6633 45.8019H51.4132V44.8467H53.6633L53.6633 45.8019ZM49.1629 45.8019H46.9127V44.8467H49.163L49.1629 45.8019ZM44.6625 45.8019H42.4123V44.8467H44.6626L44.6625 45.8019ZM40.1622 45.8019H37.912V44.8467H40.1622L40.1622 45.8019ZM35.6617 45.8019H33.4116V44.8467H35.6617L35.6617 45.8019ZM31.1613 45.8019H28.9112V44.8467H31.1613L31.1613 45.8019ZM26.6609 45.8019H24.4108V44.8467H26.661L26.6609 45.8019ZM22.1605 45.8019H19.9104V44.8467H22.1606L22.1605 45.8019ZM17.6601 45.8019H15.41V44.8467H17.6602L17.6601 45.8019ZM13.1597 45.8019H10.9096V44.8467H13.1598L13.1597 45.8019Z" fill="#F0F0F0"/>
<path d="M8.65935 20.5832H7.51746V21.5384H8.65935V20.5832Z" fill="#F0F0F0"/>
<path d="M116.669 21.5384H114.419V20.5832H116.669V21.5384ZM112.169 21.5384H109.918V20.5832H112.169V21.5384ZM107.668 21.5384H105.418V20.5832H107.668V21.5384ZM103.168 21.5384H100.917V20.5832H103.168V21.5384ZM98.6673 21.5384H96.4172V20.5832H98.6673V21.5384ZM94.1669 21.5384H91.9167V20.5832H94.1669L94.1669 21.5384ZM89.6666 21.5384H87.4164V20.5832H89.6666V21.5384ZM85.1661 21.5384H82.916V20.5832H85.1661V21.5384ZM80.6657 21.5384H78.4156V20.5832H80.6657V21.5384ZM76.1653 21.5384H73.9151V20.5832H76.1653L76.1653 21.5384ZM71.665 21.5384H69.4147V20.5832H71.665L71.665 21.5384ZM67.1646 21.5384H64.9143V20.5832H67.1646L67.1646 21.5384ZM62.6642 21.5384H60.414V20.5832H62.6642L62.6642 21.5384ZM58.1637 21.5384H55.9136V20.5832H58.1637L58.1637 21.5384ZM53.6633 21.5384H51.4132V20.5832H53.6633L53.6633 21.5384ZM49.1629 21.5384H46.9127V20.5832H49.163L49.1629 21.5384ZM44.6625 21.5384H42.4123V20.5832H44.6626L44.6625 21.5384ZM40.1622 21.5384H37.912V20.5832H40.1622L40.1622 21.5384ZM35.6617 21.5384H33.4116V20.5832H35.6617L35.6617 21.5384ZM31.1613 21.5384H28.9112V20.5832H31.1613L31.1613 21.5384ZM26.6609 21.5384H24.4108V20.5832H26.661L26.6609 21.5384ZM22.1605 21.5384H19.9104V20.5832H22.1606L22.1605 21.5384ZM17.6601 21.5384H15.41V20.5832H17.6602L17.6601 21.5384ZM13.1597 21.5384H10.9096V20.5832H13.1598L13.1597 21.5384Z" fill="#F0F0F0"/>
<path d="M44.7241 69.3967H35.3987V103.786H44.7241V69.3967Z" fill="#3F3D56"/>
<path d="M46.4369 69.3967H37.1115V103.786H46.4369V69.3967Z" fill="#8AFF99"/>
<path d="M66.8007 45.1333H57.4752V103.786H66.8007V45.1333Z" fill="#3F3D56"/>
<path d="M68.5135 45.1333H59.1881V103.786H68.5135V45.1333Z" fill="#8AFF99"/>
<path d="M88.8772 20.8698H79.5518V103.786H88.8772V20.8698Z" fill="#3F3D56"/>
<path d="M90.5901 20.8698H81.2646V103.786H90.5901V20.8698Z" fill="#8AFF99"/>
<path d="M7.61261 23.3534C8.87391 23.3534 9.89639 22.327 9.89639 21.0608C9.89639 19.7946 8.87391 18.7682 7.61261 18.7682C6.35131 18.7682 5.32883 19.7946 5.32883 21.0608C5.32883 22.327 6.35131 23.3534 7.61261 23.3534Z" fill="#F0F0F0"/>
<path d="M7.61261 47.617C8.87391 47.617 9.89639 46.5905 9.89639 45.3244C9.89639 44.0582 8.87391 43.0317 7.61261 43.0317C6.35131 43.0317 5.32883 44.0582 5.32883 45.3244C5.32883 46.5905 6.35131 47.617 7.61261 47.617Z" fill="#F0F0F0"/>
<path d="M7.61261 71.8804C8.87391 71.8804 9.89639 70.854 9.89639 69.5878C9.89639 68.3217 8.87391 67.2952 7.61261 67.2952C6.35131 67.2952 5.32883 68.3217 5.32883 69.5878C5.32883 70.854 6.35131 71.8804 7.61261 71.8804Z" fill="#F0F0F0"/>
<path d="M169 103.572H0V104H169V103.572Z" fill="#3F3D56"/>
<path d="M142.591 60.0009L142.576 59.9995C139.689 59.5211 136.483 59.5213 132.773 60.0001H132.771C132.679 60.0012 132.587 59.9839 132.501 59.9492C132.415 59.9145 132.337 59.8631 132.271 59.7979C132.205 59.7328 132.153 59.6551 132.117 59.5695C132.081 59.4839 132.062 59.392 132.062 59.2991V55.9264C132.062 55.7403 132.136 55.5619 132.267 55.4304C132.398 55.2988 132.575 55.2248 132.761 55.2246C136.028 54.797 139.336 54.7972 142.603 55.2253H142.604C142.787 55.228 142.962 55.3032 143.091 55.4344C143.219 55.5656 143.291 55.7424 143.29 55.9264V59.2991C143.29 59.4851 143.216 59.6635 143.085 59.7951C142.954 59.9266 142.776 60.0006 142.591 60.0009Z" fill="white"/>
<path d="M142.591 60.0009L142.576 59.9995C139.689 59.5211 136.483 59.5213 132.773 60.0001H132.771C132.679 60.0012 132.587 59.9839 132.501 59.9492C132.415 59.9145 132.337 59.8631 132.271 59.7979C132.205 59.7328 132.153 59.6551 132.117 59.5695C132.081 59.4839 132.062 59.392 132.062 59.2991V55.9264C132.062 55.7403 132.136 55.5619 132.267 55.4304C132.398 55.2988 132.575 55.2248 132.761 55.2246C136.028 54.797 139.336 54.7972 142.603 55.2253H142.604C142.787 55.228 142.962 55.3032 143.091 55.4344C143.219 55.5656 143.291 55.7424 143.29 55.9264V59.2991C143.29 59.4851 143.216 59.6635 143.085 59.7951C142.954 59.9266 142.776 60.0006 142.591 60.0009ZM137.551 55.0956C135.953 55.0927 134.357 55.1993 132.774 55.4147C132.706 55.4136 132.638 55.426 132.575 55.4512C132.512 55.4764 132.455 55.5138 132.407 55.5614C132.358 55.609 132.319 55.6657 132.293 55.7284C132.266 55.791 132.252 55.8583 132.252 55.9264V59.2991C132.252 59.4345 132.306 59.5643 132.401 59.66C132.496 59.7558 132.626 59.8097 132.761 59.8098C136.474 59.3297 139.696 59.3296 142.599 59.8097C142.732 59.8076 142.86 59.7529 142.953 59.6574C143.047 59.5618 143.1 59.4332 143.1 59.2991V55.9264C143.1 55.791 143.046 55.6611 142.951 55.5654C142.855 55.4696 142.726 55.4158 142.591 55.4156C140.919 55.2051 139.236 55.0982 137.551 55.0956Z" fill="#8AFF99"/>
<path d="M137.676 58.7891C138.412 58.7891 139.008 58.1903 139.008 57.4517C139.008 56.7131 138.412 56.1144 137.676 56.1144C136.94 56.1144 136.344 56.7131 136.344 57.4517C136.344 58.1903 136.94 58.7891 137.676 58.7891Z" fill="#8AFF99"/>
<path d="M134.25 56.753H133.108C133.033 56.7529 132.96 56.7227 132.907 56.669C132.853 56.6152 132.823 56.5424 132.823 56.4664V56.0843C132.823 56.0083 132.853 55.9355 132.907 55.8818C132.96 55.828 133.033 55.7978 133.108 55.7977H134.25C134.326 55.7978 134.398 55.828 134.452 55.8818C134.505 55.9355 134.536 56.0083 134.536 56.0843V56.4664C134.536 56.5424 134.505 56.6152 134.452 56.669C134.398 56.7227 134.326 56.7529 134.25 56.753Z" fill="#8AFF99"/>
<path d="M142.243 59.4277H141.102C141.026 59.4276 140.953 59.3974 140.9 59.3437C140.846 59.29 140.816 59.2171 140.816 59.1411V58.759C140.816 58.6831 140.846 58.6102 140.9 58.5565C140.953 58.5028 141.026 58.4726 141.102 58.4725H142.243C142.319 58.4726 142.392 58.5028 142.445 58.5565C142.499 58.6102 142.529 58.6831 142.529 58.759V59.1411C142.529 59.2171 142.499 59.29 142.445 59.3437C142.392 59.3974 142.319 59.4276 142.243 59.4277Z" fill="#8AFF99"/>
<path d="M140.452 55.5799C140.432 55.2997 140.474 55.0186 140.574 54.7565C140.674 54.4943 140.831 54.2574 141.032 54.0624C141.234 53.8675 141.475 53.7193 141.74 53.6282C142.005 53.5371 142.286 53.5053 142.564 53.5352L145.464 47.3598L147.303 50.3894L144.267 55.7892C144.186 56.255 143.938 56.6748 143.569 56.9691C143.201 57.2634 142.737 57.4117 142.267 57.3859C141.796 57.3601 141.352 57.162 141.017 56.8292C140.683 56.4963 140.481 56.0518 140.452 55.5799Z" fill="#FFB6B6"/>
<path d="M148.336 23.2775L149.53 21.7139C149.53 21.7139 152.44 21.119 152.934 25.1313L152.623 42.9688L146.247 53.0442L142.105 51.9827L147.52 40.0139L148.336 23.2775Z" fill="#E4E4E4"/>
</svg>
