<svg width="127" height="102" viewBox="0 0 127 102" fill="none" xmlns="http://www.w3.org/2000/svg">
<g clip-path="url(#clip0)">
<path d="M72.3496 90.237C71.4714 89.012 70.2826 88.1158 68.7881 87.7803C67.4848 87.4878 66.1448 87.5377 64.82 87.5478L48.0692 87.6765C46.6346 87.6875 45.2591 88.9256 45.3258 90.4094C45.3919 91.8806 46.5315 93.154 48.0692 93.1422C52.976 93.1045 57.8829 93.0668 62.7897 93.0291C63.9465 93.0203 65.1039 92.9995 66.2608 93.0033C66.5206 93.0041 66.7793 93.0178 67.0389 93.0207C67.1017 93.0214 67.1471 93.0208 67.1792 93.0195C67.1872 93.0219 67.194 93.0242 67.2045 93.027C67.3398 93.064 67.4787 93.0896 67.6149 93.1247C67.5672 93.1262 67.7033 93.2107 67.7716 93.2393C67.781 93.2578 67.801 93.2905 67.8344 93.341C67.881 93.4281 68.0191 93.6926 68.0248 93.6843C68.2322 94.2068 68.4033 94.7428 68.5369 95.2886C68.8557 96.4923 68.9258 96.7439 68.9717 97.8732C69.0297 99.2998 70.192 100.674 71.7151 100.606C73.1518 100.542 74.5208 99.4032 74.4586 97.8732C74.3537 95.2951 73.8995 92.399 72.3496 90.237Z" fill="#E6E6E6"/>
<path d="M49.0539 96.404C48.7392 94.5047 48.4306 92.6042 48.1099 90.706C47.7845 88.7804 47.1198 87.017 45.6154 85.7531C45.2135 85.4155 44.7967 85.1002 44.3782 84.7859C44.231 84.6754 44.0841 84.5648 43.9386 84.4519C43.9299 84.4451 43.9244 84.4409 43.9169 84.435C43.9009 84.4213 43.8817 84.4051 43.8559 84.3833C43.2289 83.8547 42.6231 83.3026 42.046 82.7157C41.5335 82.1945 41.0434 81.6511 40.5757 81.0854C40.4588 80.9441 40.3435 80.8016 40.2296 80.6578C40.21 80.6331 40.1045 80.4972 40.035 80.4086C39.9704 80.3199 39.8523 80.1598 39.8324 80.1318C39.6994 79.9444 39.5687 79.7553 39.4404 79.5644C38.5666 78.2603 37.81 76.8819 37.1793 75.4454C37.1168 75.3029 37.0557 75.1596 36.9961 75.0154C36.9801 74.9714 36.9595 74.9149 36.932 74.8397C36.8049 74.4916 36.6781 74.1438 36.5619 73.7916C36.315 73.0433 36.1027 72.284 35.9251 71.5137C35.8372 71.1333 35.7582 70.751 35.6879 70.3667C35.6516 70.1691 35.6177 69.9711 35.5862 69.7727C35.581 69.7398 35.5501 69.5257 35.532 69.4048C35.5186 69.2832 35.4936 69.068 35.4903 69.0348C35.4702 68.8347 35.4524 68.6345 35.4368 68.4341C35.4017 67.9832 35.378 67.5315 35.3656 67.0791C35.3445 66.275 35.359 65.471 35.409 64.667C35.4375 64.2153 35.478 63.7648 35.5279 63.3151C35.5309 63.2874 35.5333 63.2655 35.5354 63.2457C35.5384 63.2256 35.542 63.2028 35.5461 63.1744C35.5831 62.9259 35.6219 62.6777 35.6654 62.4303C35.8299 61.4909 36.0439 60.5608 36.3065 59.6439C36.4309 59.2102 36.5659 58.78 36.7117 58.3534C36.7766 58.164 36.8437 57.9753 36.9128 57.7874C36.9082 57.7995 37.1155 57.2723 37.1182 57.2546C37.9404 55.3195 39.2851 53.5555 39.287 51.3573C39.2882 49.869 38.0243 48.4434 36.5435 48.5122C35.8053 48.5398 35.1066 48.8519 34.5949 49.3827C34.0831 49.9134 33.7982 50.6214 33.8001 51.3573C33.8001 51.3907 33.7999 51.4192 33.7998 51.4469C33.786 51.4932 33.7745 51.5319 33.7641 51.5661C33.6038 51.9132 33.4074 52.243 33.2314 52.5814C32.7495 53.5078 32.3381 54.4645 31.9474 55.4353C31.3077 57.0162 30.8181 58.6533 30.4849 60.3251C29.7607 63.9882 29.7045 67.7513 30.319 71.4342C31.3827 77.8928 34.8905 84.0753 39.7672 88.231C40.1904 88.5916 40.624 88.9401 41.0616 89.2816C41.2427 89.4229 41.4253 89.5615 41.6088 89.6993C41.6955 89.7645 42.0549 90.0468 41.8968 89.91C42.2367 90.199 42.3798 90.3444 42.4671 90.5572C42.4798 90.6064 42.497 90.673 42.5204 90.7641C42.5819 91.0041 42.6403 91.2436 42.6889 91.487C43.1134 93.6138 43.4084 95.7762 43.763 97.9167C44.0067 99.3874 45.8243 100.345 47.1378 99.9039C48.6666 99.3908 49.315 97.9799 49.0539 96.404Z" fill="#E6E6E6"/>
<path d="M72.6271 101.92C71.4749 101.923 70.3686 101.471 69.5509 100.662C68.7331 99.8537 68.2707 98.7551 68.265 97.6073V94.4899C64.9885 94.8553 53.7688 94.7706 50.5527 94.2559V97.4827C50.5441 98.6294 50.0807 99.7263 49.2636 100.534C48.4465 101.342 47.3419 101.795 46.1906 101.795C45.0393 101.795 43.9348 101.342 43.1176 100.534C42.3005 99.7263 41.8371 98.6294 41.8285 97.4827V91.1472C37.4726 88.7367 33.8413 85.2119 31.3094 80.9366C28.7775 76.6613 27.4367 71.7905 27.4254 66.8267C27.4254 58.3155 31.2976 50.3758 38.0492 45.0434C42.439 41.5646 47.7726 39.4725 53.3649 39.0357C54.124 38.9764 54.8877 38.9464 55.6349 38.9464C58.2673 38.9464 70.144 39.3514 73.124 40.2055L79.9188 33.4891C80.0187 33.3891 80.1462 33.3209 80.2852 33.2933C80.4241 33.2657 80.5681 33.28 80.6989 33.3343C80.8307 33.3865 80.9435 33.4772 81.0226 33.5944C81.1017 33.7117 81.1433 33.85 81.1421 33.9913V35.0592L82.4651 33.7539C82.5648 33.6537 82.6923 33.5854 82.8312 33.5578C82.97 33.5301 83.114 33.5444 83.2447 33.5987C83.3766 33.6509 83.4895 33.7416 83.5687 33.8589C83.6479 33.9762 83.6896 34.1147 83.6883 34.256V46.1892C87.0979 49.2511 89.6965 53.1035 91.254 57.4051C92.8115 61.7067 93.2797 66.3246 92.6172 70.8495C91.9546 75.3745 90.1817 79.6667 87.4557 83.3459C84.7297 87.0251 81.1346 89.9777 76.9891 91.9419V97.6073C76.9835 98.7551 76.5211 99.8537 75.7033 100.662C74.8856 101.471 73.7793 101.923 72.6271 101.92ZM68.608 94.1025V97.6073C68.6166 98.6635 69.0439 99.6735 69.7967 100.417C70.5494 101.161 71.5668 101.578 72.6271 101.578C73.6874 101.578 74.7047 101.161 75.4575 100.417C76.2103 99.6735 76.6376 98.6635 76.6462 97.6073V91.7261L76.7441 91.6798C81.3956 89.4811 85.3443 86.0412 88.1518 81.7421C91.7294 76.2562 93.2173 69.6756 92.3461 63.1915C91.4749 56.7074 88.3023 50.7483 83.4024 46.3925L83.3454 46.3416V34.256C83.3466 34.1826 83.3252 34.1105 83.2841 34.0496C83.243 33.9886 83.1841 33.9417 83.1153 33.9151C83.047 33.8861 82.9715 33.8782 82.8986 33.8926C82.8258 33.907 82.759 33.9431 82.707 33.996L80.7991 35.8783V33.9913C80.8004 33.9179 80.779 33.8458 80.7378 33.7849C80.6967 33.7239 80.6378 33.677 80.5691 33.6504C80.5006 33.6214 80.4249 33.6136 80.3519 33.6281C80.2789 33.6427 80.2121 33.6788 80.1601 33.7318L73.2198 40.5919L73.1212 40.5612C70.351 39.6975 58.2873 39.288 55.6349 39.288C54.8965 39.288 54.1419 39.3177 53.3918 39.3763C47.8675 39.8077 42.5987 41.8745 38.2623 45.3111C31.5932 50.5783 27.7683 58.4205 27.7683 66.8267C27.7797 71.7466 29.1133 76.5736 31.6306 80.8065C34.1479 85.0393 37.757 88.5236 42.083 90.8973L42.1714 90.9461V97.4827C42.1803 98.5387 42.6076 99.5485 43.3604 100.292C44.1132 101.036 45.1304 101.453 46.1906 101.453C47.2508 101.453 48.268 101.036 49.0208 100.292C49.7736 99.5485 50.2009 98.5387 50.2098 97.4827V93.847L50.4129 93.885C53.3031 94.4267 65.473 94.5121 68.4142 94.1278L68.608 94.1025Z" fill="#3F3D56"/>
<path d="M49.3816 20.3458L30.3935 26.0302C29.7896 26.2117 29.2826 26.6246 28.9841 27.1782C28.6856 27.7318 28.6199 28.3808 28.8015 28.9826C28.983 29.5844 29.397 30.0899 29.9524 30.3879C30.5078 30.6858 31.1592 30.752 31.7636 30.5718L48.3802 25.5963L48.7283 25.4921C48.7987 23.7053 49.2854 21.9592 50.1497 20.3919C50.0413 20.3433 49.9253 20.3133 49.8068 20.3031C49.6636 20.2893 49.5191 20.3038 49.3816 20.3458Z" fill="#8AFF99"/>
<path d="M31.4352 31.7837C31.1831 31.7831 30.9376 31.7036 30.7334 31.5565C30.5291 31.4093 30.3765 31.2019 30.297 30.9637L29.1096 27.3945C29.06 27.2455 29.0404 27.0882 29.0519 26.9316C29.0633 26.775 29.1056 26.6221 29.1764 26.4818C29.2471 26.3415 29.3449 26.2164 29.4642 26.1138C29.5835 26.0111 29.7219 25.9329 29.8715 25.8835L45.3259 20.7816C45.4755 20.7322 45.6334 20.7126 45.7906 20.724C45.9478 20.7354 46.1012 20.7775 46.2421 20.8479C46.3829 20.9184 46.5085 21.0158 46.6115 21.1346C46.7146 21.2534 46.7932 21.3912 46.8428 21.5402L48.0301 25.1094C48.1289 25.4029 48.1091 25.7233 47.9749 26.0025C47.8407 26.2818 47.6026 26.498 47.3112 26.6055C47.2969 26.6108 47.2825 26.6159 47.2679 26.6206L31.8139 31.7224C31.6918 31.7629 31.5639 31.7836 31.4352 31.7837Z" fill="#2F2E41"/>
<path d="M60.3776 14.0073C57.2585 14.0085 54.2622 15.2186 52.023 17.3816C49.7838 19.5446 48.4773 22.4907 48.3802 25.5963C48.3767 25.7176 48.3751 25.8406 48.3751 25.9636C48.3751 28.3283 49.079 30.6399 50.3979 32.6061C51.7167 34.5723 53.5913 36.1048 55.7844 37.0097C57.9776 37.9147 60.3909 38.1515 62.7192 37.6901C65.0475 37.2288 67.1861 36.0901 68.8647 34.4179C70.5433 32.7458 71.6864 30.6154 72.1495 28.2961C72.6127 25.9768 72.375 23.5728 71.4665 21.3881C70.5581 19.2034 69.0197 17.336 67.0459 16.0223C65.0721 14.7085 62.7515 14.0073 60.3776 14.0073ZM60.3776 37.5782C57.2863 37.575 54.3225 36.3503 52.1366 34.1728C49.9507 31.9954 48.7212 29.043 48.718 25.9636C48.718 25.8047 48.7214 25.6476 48.7283 25.4921C48.8211 23.217 49.5833 21.0192 50.92 19.1721C52.2567 17.325 54.109 15.91 56.2465 15.1032C58.384 14.2963 60.7124 14.1331 62.9423 14.634C65.1722 15.1348 67.2051 16.2775 68.7882 17.92C70.3713 19.5625 71.4349 21.6323 71.8466 23.8721C72.2583 26.1119 72 28.4228 71.1038 30.5175C70.2076 32.6122 68.713 34.3983 66.8059 35.6537C64.8989 36.909 62.6635 37.5783 60.3776 37.5782Z" fill="#3F3D56"/>
<path d="M70.494 25.9635C70.494 28.6362 69.4282 31.1995 67.531 33.0893C65.6338 34.9792 63.0607 36.041 60.3776 36.041C57.6946 36.041 55.1214 34.9792 53.2242 33.0893C51.327 31.1995 50.2612 28.6362 50.2612 25.9635C50.2612 25.6441 50.2766 25.3298 50.3057 25.019C50.5495 22.4395 51.7812 20.0527 53.7451 18.3541C55.709 16.6555 58.2542 15.7757 60.8522 15.8972C63.4502 16.0188 65.9014 17.1324 67.6969 19.0069C69.4923 20.8814 70.494 23.3727 70.494 25.9635Z" fill="#E6E6E6"/>
<path d="M63.3902 26.6331C63.145 26.3119 62.8224 26.0575 62.4524 25.8935C61.9959 25.7018 61.5245 25.5476 61.0429 25.4323V22.6892C61.7832 22.8004 62.4775 23.1157 63.0473 23.5996L63.6063 22.4125C63.2848 22.1272 62.9157 21.9 62.5157 21.7412C62.0724 21.5624 61.6071 21.4435 61.1321 21.3877V19.9973H59.8375V21.4013C59.3376 21.4573 58.8554 21.6185 58.4229 21.8745C58.0323 22.1048 57.7034 22.4259 57.4644 22.8105C57.2363 23.1857 57.1182 23.617 57.1232 24.0556C57.1009 24.5309 57.2392 25 57.5159 25.3879C57.7705 25.7237 58.1069 25.9894 58.4932 26.1599C58.9569 26.3572 59.4364 26.5155 59.9267 26.6331V29.2617C59.0531 29.1961 58.2206 28.8652 57.5416 28.3138L56.9827 29.5026C57.3623 29.8153 57.7941 30.0592 58.2583 30.2234C58.767 30.4047 59.2985 30.5151 59.8375 30.5513V31.9297H61.1321V30.5257C61.8511 30.4474 62.5254 30.1394 63.0542 29.6477C63.287 29.4253 63.471 29.1571 63.5944 28.8601C63.7177 28.5632 63.7779 28.2439 63.7709 27.9226C63.7924 27.4625 63.6584 27.0084 63.3902 26.6331ZM59.9267 25.1419C59.6113 25.0467 59.3182 24.8899 59.0642 24.6808C58.9636 24.5916 58.884 24.4813 58.8312 24.3579C58.7785 24.2344 58.7538 24.1009 58.759 23.9668C58.7497 23.6626 58.8619 23.3671 59.071 23.1452C59.3029 22.9125 59.6021 22.7578 59.9267 22.7029V25.1419ZM61.8557 28.7766C61.6369 29.0001 61.3521 29.148 61.0429 29.1985V26.9371C61.3384 27.0161 61.6149 27.1538 61.8557 27.3419C61.9469 27.4195 62.0195 27.5167 62.0678 27.6261C62.1162 27.7355 62.1392 27.8544 62.1351 27.9739C62.147 28.267 62.0472 28.5538 61.8557 28.7766Z" fill="#8AFF99"/>
<path d="M31.9863 46.2489C31.7212 46.2485 31.4637 46.1609 31.2536 45.9999C31.0436 45.8388 30.8928 45.6132 30.8246 45.358L30.1781 42.9207C30.0972 42.6143 30.1416 42.2885 30.3015 42.0147C30.4614 41.7408 30.7238 41.5414 31.0312 41.4601L51.4254 36.0917C51.7331 36.0117 52.0601 36.0564 52.3349 36.216C52.6097 36.3756 52.8098 36.6371 52.8916 36.9433L53.4392 39.0083L53.3366 39.0162C48.1061 39.4213 43.1016 41.3104 38.9151 44.4599L38.8853 44.4742L32.2908 46.2096C32.1914 46.2357 32.089 46.2489 31.9863 46.2489Z" fill="#2F2E41"/>
<path d="M28.6086 58.2883C26.2162 57.9362 23.9282 57.0745 21.9005 55.7617C20.8959 55.1119 19.9659 54.3542 19.1272 53.5023C18.2994 52.6612 17.5075 51.7052 17.0974 50.5851C16.703 49.5488 16.7233 48.401 17.1542 47.3792C17.5793 46.3636 18.3913 45.5574 19.4122 45.1373C20.4392 44.7293 21.6801 44.6857 22.6796 45.1325C23.1559 45.3405 23.568 45.6709 23.8737 46.09C24.0158 46.2832 24.121 46.5008 24.1841 46.7319C24.2427 46.9413 24.248 47.162 24.1996 47.374C24.141 47.5856 24.0376 47.7823 23.8965 47.9509C23.7553 48.1195 23.5796 48.2561 23.3811 48.3515C22.9442 48.5748 22.4708 48.7186 21.9833 48.7762C21.4928 48.8428 20.7884 48.9034 20.3941 48.5112C20.313 48.4337 20.2491 48.3399 20.2068 48.2361C20.1771 48.1566 20.167 48.0712 20.1772 47.9871C20.1715 48.0242 20.201 47.9064 20.1993 47.9111C20.1931 47.9285 20.1661 47.9709 20.2045 47.9057C20.2164 47.8842 20.2298 47.8635 20.2444 47.8437C20.2314 47.8605 20.2028 47.8885 20.2539 47.8405C20.2961 47.7944 20.3504 47.761 20.4107 47.7441C20.4344 47.7372 20.4585 47.7317 20.4823 47.7252C20.5427 47.7088 20.422 47.7261 20.4839 47.7241C20.5077 47.7234 20.5319 47.724 20.5557 47.7229C20.6164 47.7202 20.4958 47.7064 20.554 47.721C20.5766 47.7266 20.5989 47.7322 20.6212 47.7391C20.6696 47.7543 20.5869 47.7038 20.6197 47.7416C20.6581 47.7859 20.5794 47.6985 20.6231 47.7414C20.6448 47.7627 20.6653 47.7852 20.6844 47.8088C20.7601 47.8832 20.8622 47.925 20.9686 47.925C21.075 47.925 21.1771 47.8832 21.2528 47.8088C21.3259 47.7325 21.3667 47.6311 21.3667 47.5256C21.3667 47.4202 21.3259 47.3188 21.2528 47.2425C20.8565 46.7531 20.0736 46.8741 19.6727 47.2877C19.1614 47.8152 19.3639 48.6513 19.8612 49.1115C20.4243 49.6326 21.2217 49.6688 21.946 49.5814C22.558 49.523 23.1545 49.3551 23.7068 49.0858C24.2555 48.8172 24.6846 48.3554 24.9111 47.7897C25.0134 47.4878 25.0501 47.1677 25.0189 46.8506C24.9877 46.5335 24.8892 46.2267 24.73 45.9503C24.0905 44.7528 22.7665 44.1388 21.4577 44.0325C20.7839 43.9799 20.1063 44.0609 19.4641 44.2709C18.8219 44.4809 18.228 44.8157 17.7165 45.2559C16.7308 46.1399 16.1238 47.3675 16.021 48.6848C15.9068 50.0505 16.4387 51.3769 17.2143 52.4791C18.0262 53.599 18.9951 54.5971 20.0914 55.4431C22.2346 57.1476 24.7486 58.3286 27.4322 58.8918C27.7514 58.9574 28.0723 59.0137 28.3949 59.0604C28.4975 59.0852 28.6058 59.0701 28.6977 59.0181C28.7895 58.9662 28.8581 58.8813 28.8893 58.7808C28.9169 58.6784 28.9029 58.5694 28.8503 58.4772C28.7978 58.385 28.711 58.3172 28.6086 58.2883L28.6086 58.2883Z" fill="#3F3D56"/>
<path d="M66.9114 40.8874C63.4063 40.8381 59.9122 40.9267 56.4292 41.1532C55.2387 41.2307 54.2086 41.6498 54.2086 42.3544C54.2086 42.9434 55.2305 43.6334 56.4292 43.5555C59.9104 43.329 63.4045 43.2404 66.9114 43.2896C69.7704 43.3298 69.7687 40.9276 66.9114 40.8874Z" fill="#CCCCCC"/>
<path d="M61.7308 43.1706C61.352 43.1706 52.4535 43.1565 52.4535 41.9321C52.4535 40.7078 61.352 40.6937 61.7308 40.6937C62.1096 40.6937 71.008 40.7078 71.008 41.9321C71.008 43.1565 62.1096 43.1706 61.7308 43.1706ZM52.8015 41.9321C53.045 42.3034 56.3159 42.829 61.7308 42.829C67.1457 42.829 70.4165 42.3034 70.6601 41.9321C70.4165 41.561 67.1457 41.0353 61.7308 41.0353C56.3159 41.0353 53.045 41.561 52.8015 41.9321V41.9321Z" fill="#3F3D56"/>
<path d="M89.9632 75.3587C91.933 75.3043 94.3846 75.2362 96.2733 73.8618C96.8357 73.4358 97.2977 72.8924 97.6271 72.2698C97.9565 71.6471 98.1452 70.9602 98.18 70.2573C98.2186 69.1719 97.8249 68.2244 97.0715 67.5903C96.0851 66.76 94.6446 66.5652 93.0923 67.0196L94.7006 55.3114L93.52 55.1502L91.6292 68.9148L92.6151 68.4641C93.7582 67.9419 95.3273 67.6761 96.3023 68.4969C96.5417 68.7115 96.7282 68.9782 96.8474 69.2762C96.9665 69.5743 97.015 69.8957 96.9891 70.2155C96.9602 70.7387 96.8185 71.2496 96.5737 71.7133C96.3289 72.1771 95.9866 72.5829 95.5703 72.9031C94.1005 73.9725 92.1463 74.1105 89.93 74.1722L89.9632 75.3587Z" fill="#3F3D56"/>
<path d="M86.6988 56.3211H80.2805V57.5082H86.6988V56.3211Z" fill="#3F3D56"/>
<path d="M34.8906 51.7088C34.6049 51.7079 34.3289 51.6057 34.112 51.4205C33.8951 51.2353 33.7514 50.9792 33.7068 50.6981L33.3151 48.2075C33.2661 47.8943 33.3439 47.5745 33.5314 47.3183C33.7189 47.0622 34.0007 46.8906 34.3151 46.8412L55.1535 43.5886C55.4679 43.5399 55.7889 43.6174 56.046 43.8042C56.3032 43.9909 56.4754 44.2716 56.525 44.5848L56.9168 47.0754C56.9657 47.3887 56.8879 47.7084 56.7005 47.9646C56.513 48.2208 56.2312 48.3924 55.9168 48.4418L35.0784 51.6942C35.0163 51.7039 34.9535 51.7088 34.8906 51.7088Z" fill="#2F2E41"/>
<path d="M26.2666 22.5213C31.0962 22.5213 35.0114 18.6213 35.0114 13.8103C35.0114 8.99936 31.0962 5.0993 26.2666 5.0993C21.4371 5.0993 17.5219 8.99936 17.5219 13.8103C17.5219 18.6213 21.4371 22.5213 26.2666 22.5213Z" fill="#8AFF99"/>
<path d="M31.2177 16.0643C31.4972 15.9669 31.7525 15.811 31.9665 15.6072C32.1081 15.4618 32.216 15.2874 32.2828 15.0961C32.3496 14.9048 32.3736 14.7013 32.3531 14.4998C32.3412 14.3562 32.2962 14.2173 32.2214 14.0939C32.1467 13.9705 32.0444 13.866 31.9224 13.7886C31.6059 13.5947 31.1877 13.602 30.7655 13.797L30.7168 10.3967L30.3739 10.4015L30.4312 14.399L30.6922 14.2285C30.9949 14.031 31.4298 13.8879 31.7427 14.0796C31.8201 14.1303 31.8847 14.1982 31.9315 14.2779C31.9782 14.3575 32.0059 14.4469 32.0124 14.539C32.0268 14.6891 32.0086 14.8405 31.959 14.983C31.9094 15.1255 31.8296 15.2556 31.725 15.3646C31.3533 15.732 30.803 15.8551 30.1751 15.9677L30.2358 16.3039C30.5697 16.2534 30.8983 16.1732 31.2177 16.0643Z" fill="#2F2E41"/>
<path d="M34.2479 10.158L32.4218 10.4335L32.4731 10.7712L34.2993 10.4957L34.2479 10.158Z" fill="#2F2E41"/>
<path d="M28.4838 11.0274L26.6577 11.3029L26.709 11.6406L28.5351 11.3651L28.4838 11.0274Z" fill="#2F2E41"/>
<path d="M32.0455 51.5566C31.731 51.5559 31.4242 51.4598 31.1659 51.2812C30.9075 51.1025 30.7099 50.8498 30.5993 50.5565L24.5701 34.4721C23.8331 32.4994 23.9118 30.3161 24.7889 28.4012C25.6659 26.4862 27.2697 24.9961 29.2484 24.2576L34.1508 22.434C34.3404 22.363 34.5422 22.3301 34.7446 22.3371C34.947 22.3441 35.146 22.3909 35.3302 22.4748C35.5139 22.5566 35.6794 22.674 35.8171 22.8202C35.9547 22.9665 36.0617 23.1385 36.1318 23.3264L47.3005 44.3326C47.373 44.522 47.4072 44.7238 47.4011 44.9265C47.395 45.1291 47.3487 45.3285 47.265 45.5133C47.1812 45.698 47.0616 45.8645 46.913 46.003C46.7644 46.1415 46.5898 46.2494 46.3992 46.3204L32.5848 51.4589C32.4124 51.5233 32.2297 51.5564 32.0455 51.5566Z" fill="#2F2E41"/>
<path d="M32.6634 22.9873L43.7451 37.7491L36.2466 23.1422C36.1847 22.9718 36.0897 22.8152 35.967 22.6813C35.8442 22.5475 35.6963 22.439 35.5315 22.3622C35.3667 22.2853 35.1883 22.2415 35.0066 22.2333C34.8248 22.2252 34.6432 22.2527 34.4721 22.3145L32.6634 22.9873Z" fill="#E6E6E6"/>
<path d="M50.2098 34.198L30.4235 32.9284C30.1117 32.9084 29.8068 32.8274 29.5263 32.69C29.2459 32.5526 28.9953 32.3615 28.789 32.1277C28.5827 31.8939 28.4246 31.6219 28.3238 31.3272C28.223 31.0325 28.1815 30.7209 28.2016 30.4102C28.2217 30.0996 28.303 29.7959 28.4409 29.5165C28.5788 29.2371 28.7706 28.9876 29.0053 28.782C29.2401 28.5765 29.5132 28.419 29.809 28.3186C30.1048 28.2182 30.4176 28.1768 30.7295 28.1969L50.5157 29.4664C50.6618 29.4757 50.8046 29.5137 50.9359 29.578C51.0673 29.6423 51.1846 29.7318 51.2812 29.8413C51.3779 29.9508 51.4519 30.0782 51.4991 30.2162C51.5463 30.3542 51.5658 30.5001 51.5563 30.6456L51.3937 33.1614C51.3747 33.4553 51.2393 33.7295 51.0172 33.9239C50.7952 34.1183 50.5048 34.2169 50.2098 34.198Z" fill="#8AFF99"/>
<path d="M44.9226 35.0119C44.8965 35.0119 44.8703 35.0111 44.8441 35.0094H44.844L28.5966 33.9669C28.4393 33.9568 28.2856 33.916 28.1441 33.8467C28.0027 33.7774 27.8763 33.6811 27.7723 33.5632C27.6682 33.4452 27.5885 33.308 27.5376 33.1594C27.4868 33.0108 27.4659 32.8537 27.476 32.697L27.7538 28.3998C27.764 28.2432 27.805 28.09 27.8745 27.9491C27.9441 27.8082 28.0408 27.6823 28.1592 27.5787C28.2776 27.475 28.4154 27.3956 28.5646 27.345C28.7138 27.2944 28.8715 27.2735 29.0288 27.2836L45.2762 28.326C45.5937 28.3468 45.89 28.4921 46.1001 28.7302C46.3102 28.9683 46.4169 29.2796 46.3968 29.596L46.119 33.8932C46.1037 34.1234 46.022 34.3444 45.8837 34.5295C45.7455 34.7147 45.5565 34.8561 45.3395 34.9369C45.2062 34.9866 45.065 35.012 44.9226 35.0119Z" fill="#2F2E41"/>
<path d="M26.1664 8.01763C27.3168 7.03203 28.8966 7.91371 30.2158 7.75937C31.478 7.6117 32.4747 6.48389 32.7293 5.28572C33.0263 3.88786 32.298 2.48741 31.2244 1.61587C30.0486 0.661313 28.4892 0.387284 27.0114 0.563883C25.3178 0.766286 23.7688 1.55273 22.379 2.50397C21.0374 3.39371 19.8037 4.43509 18.7025 5.60734C17.7163 6.69223 16.8808 7.98539 16.6141 9.44527C16.3716 10.772 16.5567 12.2422 17.3441 13.3661C17.7616 13.9422 18.3211 14.4013 18.9686 14.6993C19.6437 15.0295 20.3639 15.2656 21.0179 15.639C22.0069 16.2035 22.9681 17.3742 22.6583 18.5924C22.5919 18.8585 22.4608 19.1042 22.2766 19.308C22.0553 19.5527 21.6561 19.2294 21.878 18.984C22.2677 18.553 22.2524 17.9783 22.0447 17.4638C21.7977 16.884 21.3604 16.405 20.8044 16.1052C20.1198 15.7152 19.3639 15.4745 18.6621 15.1194C17.9905 14.7949 17.4074 14.3136 16.9627 13.7164C16.1228 12.5537 15.8716 11.0406 16.062 9.64085C16.2682 8.12609 17.0495 6.74961 18.0289 5.59613C19.0947 4.34081 20.404 3.27822 21.7415 2.32363C23.1767 1.29934 24.7623 0.43338 26.5168 0.120174C28.0378 -0.151326 29.6863 0.0158269 31.0163 0.841468C32.2577 1.61215 33.2097 2.93788 33.3044 4.41925C33.3384 5.09327 33.1915 5.76414 32.8788 6.36282C32.5661 6.96149 32.0989 7.46635 31.5252 7.82544C30.9367 8.1763 30.2523 8.33422 29.5688 8.27693C28.8381 8.23034 28.1067 8.00744 27.3713 8.06932C27.0385 8.08945 26.7214 8.21708 26.468 8.43288C26.2167 8.64822 25.9171 8.23121 26.1664 8.01764V8.01763Z" fill="#2F2E41"/>
<path d="M126.796 102H0.20416C0.150115 102 0.0983393 101.978 0.0601794 101.94C0.0220195 101.902 0.000589371 101.85 0.000589371 101.797C0.000589371 101.743 0.0220195 101.691 0.0601794 101.653C0.0983393 101.615 0.150115 101.593 0.20416 101.593H126.796C126.85 101.593 126.902 101.615 126.94 101.653C126.979 101.691 127 101.743 127 101.797C127 101.851 126.979 101.902 126.94 101.94C126.902 101.979 126.85 102 126.796 102Z" fill="#3F3D56"/>
</g>
<defs>
<clipPath id="clip0">
<rect width="127" height="102" fill="white"/>
</clipPath>
</defs>
</svg>
