<svg width="157" height="110" viewBox="0 0 157 110" fill="none" xmlns="http://www.w3.org/2000/svg">
<path d="M66.6976 46.9057C66.4511 46.726 66.2157 46.5317 65.9927 46.3239L66.2979 46.0026C66.5078 46.1982 66.7293 46.3811 66.9614 46.5504L66.6976 46.9057Z" fill="#E4E4E4"/>
<path d="M64.7681 44.8416C64.4267 44.2972 64.1578 43.7113 63.9679 43.0986L64.3935 42.969C64.5721 43.5454 64.8251 44.0965 65.1461 44.6086L64.7681 44.8416ZM63.6411 41.2118C63.6367 41.1075 63.6345 41.0031 63.6345 40.8986C63.6345 40.3625 63.6928 39.8279 63.8085 39.3042L64.2434 39.3987C64.1346 39.8914 64.0797 40.3942 64.0797 40.8986C64.0797 40.9969 64.0818 41.0951 64.0859 41.1932L63.6411 41.2118ZM64.8589 37.7045L64.4631 37.5026C64.6469 37.149 64.8588 36.8103 65.0966 36.4899C65.2426 36.2934 65.4003 36.1057 65.5689 35.9279L65.8932 36.2301C65.7368 36.395 65.5906 36.5691 65.4552 36.7514C65.2314 37.053 65.032 37.3717 64.8589 37.7045H64.8589ZM67.3216 35.1449L67.1114 34.7559C67.686 34.4508 68.3066 34.2396 68.9491 34.1305L69.0245 34.5654C68.4291 34.6665 67.8541 34.8622 67.3216 35.1449H67.3216ZM72.5372 35.0967C72.0003 34.8228 71.422 34.6373 70.825 34.5476L70.8919 34.1114C71.5366 34.2083 72.1611 34.4085 72.7409 34.7043L72.5372 35.0967Z" fill="#E4E4E4"/>
<path d="M74.4777 36.8429C74.3319 36.6028 74.1632 36.377 73.9739 36.1688L74.3046 35.8734C74.513 36.1026 74.6987 36.3511 74.8592 36.6155L74.4777 36.8429Z" fill="#E4E4E4"/>
<path d="M57.4113 32.1488L57.0527 31.8873C57.2308 31.6473 57.4185 31.41 57.6107 31.1819L57.9524 31.4647C57.7661 31.6859 57.584 31.9161 57.4113 32.1488Z" fill="#E4E4E4"/>
<path d="M79.4679 31.6385C79.1259 31.168 78.7469 30.7249 78.3346 30.3134L78.6505 30.0024C79.0793 30.4304 79.4734 30.8913 79.8292 31.3807L79.4679 31.6385ZM59.1638 30.1974L58.8605 29.8744C59.3044 29.4651 59.7738 29.084 60.266 28.7333L60.5258 29.0916C60.0488 29.4315 59.5939 29.8008 59.1638 30.1974ZM77.0056 29.18C76.532 28.8355 76.0374 28.5204 75.5245 28.2365L75.7414 27.8511C76.2704 28.1439 76.7806 28.469 77.2691 28.8244L77.0056 29.18ZM62.0176 28.1653L61.8056 27.7773C62.3386 27.4914 62.8891 27.2388 63.454 27.0211L63.6152 27.4323C63.0678 27.6433 62.5342 27.8881 62.0176 28.1653ZM73.9366 27.4842C73.3918 27.267 72.8337 27.084 72.2656 26.9364L72.3784 26.5096C72.9646 26.6619 73.5406 26.8507 74.1028 27.0748L73.9366 27.4842ZM65.293 26.9034L65.1849 26.4754C65.7727 26.3296 66.3692 26.2203 66.9707 26.1479L67.0243 26.586C66.4411 26.6561 65.8629 26.7621 65.293 26.9034V26.9034ZM70.5382 26.6018C69.9558 26.5265 69.3692 26.4874 68.7818 26.4846L68.7838 26.0434C69.3898 26.0462 69.995 26.0866 70.5959 26.1643L70.5382 26.6018Z" fill="#E4E4E4"/>
<path d="M80.7389 33.914C80.6293 33.6479 80.5078 33.383 80.3779 33.1269L80.7757 32.9286C80.9108 33.1952 81.0371 33.4706 81.151 33.7473L80.7389 33.914Z" fill="#E4E4E4"/>
<path d="M81.9589 59.8437L81.806 59.4293C82.0803 59.3298 82.3566 59.2233 82.6275 59.1128L82.797 59.5209C82.5207 59.6336 82.2388 59.7422 81.9589 59.8437Z" fill="#E4E4E4"/>
<path d="M75.018 61.1916L75.0018 60.7507C75.5794 60.7298 76.1632 60.6859 76.737 60.6202L76.7881 61.0586C76.2027 61.1255 75.6072 61.1703 75.018 61.1916ZM73.2429 61.1864C72.6531 61.1617 72.0578 61.1133 71.4736 61.0427L71.5275 60.6047C72.1001 60.6739 72.6836 60.7213 73.2617 60.7456L73.2429 61.1864ZM78.5422 60.7884L78.4566 60.3553C79.0236 60.2453 79.5933 60.1114 80.1499 59.9576L80.2695 60.3826C79.7017 60.5395 79.1205 60.676 78.5422 60.7884ZM69.7214 60.7608C69.1436 60.6444 68.5635 60.5035 67.9971 60.3421L68.1202 59.9181C68.6752 60.0762 69.2438 60.2143 69.8101 60.3284L69.7214 60.7608ZM66.3118 59.789C65.7601 59.5834 65.2098 59.3532 64.6763 59.1047L64.8656 58.7054C65.3885 58.9488 65.9278 59.1745 66.4685 59.376L66.3118 59.789ZM63.1008 58.2943C62.5903 58.0058 62.0836 57.6926 61.5948 57.3636L61.8449 56.9986C62.3241 57.3212 62.8209 57.6281 63.3213 57.911L63.1008 58.2943Z" fill="#E4E4E4"/>
<path d="M60.1628 56.3109C59.9305 56.1229 59.7005 55.9271 59.4789 55.729L59.7771 55.4014C59.9933 55.5948 60.2178 55.7857 60.4443 55.9691L60.1628 56.3109Z" fill="#E4E4E4"/>
<path d="M47.8391 11.8212L47.6104 11.4426C47.866 11.2909 48.1266 11.1407 48.3849 10.9962L48.6038 11.3804C48.3487 11.5231 48.0915 11.6714 47.8391 11.8212Z" fill="#E4E4E4"/>
<path d="M90.6942 17.8473C90.3128 17.4069 89.9114 16.9725 89.5011 16.5563L89.8195 16.2479C90.2364 16.6709 90.6444 17.1123 91.032 17.5599L90.6942 17.8473ZM88.2268 15.3438C87.7918 14.9556 87.3376 14.5755 86.8769 14.2141L87.1532 13.8681C87.6213 14.2353 88.0827 14.6214 88.5246 15.0158L88.2268 15.3438ZM85.458 13.1684C84.9765 12.8333 84.4811 12.5066 83.9855 12.1975L84.2226 11.8241C84.7245 12.1371 85.2262 12.4679 85.7139 12.8073L85.458 13.1684ZM82.4654 11.3022C81.9537 11.018 81.4274 10.743 80.9012 10.4849L81.0986 10.0894C81.6316 10.3508 82.1647 10.6294 82.6831 10.9173L82.4654 11.3022ZM50.1667 10.558L49.9681 10.1632C50.5005 9.90013 51.047 9.64733 51.5923 9.41178L51.7701 9.81625C51.2318 10.0488 50.6923 10.2984 50.1667 10.558L50.1667 10.558ZM79.2966 9.74831C78.7577 9.51735 78.2056 9.29737 77.6558 9.09449L77.8111 8.68097C78.3681 8.88651 78.9274 9.10936 79.4732 9.34326L79.2966 9.74831ZM53.4098 9.1569L53.2531 8.74395C53.8091 8.53662 54.3786 8.34049 54.9461 8.16109L55.0814 8.5815C54.5211 8.7586 53.9588 8.95222 53.4098 9.1569L53.4098 9.1569ZM75.983 8.52527C75.4235 8.35076 74.8514 8.18831 74.2828 8.04245L74.3943 7.61528C74.9703 7.76301 75.5498 7.92761 76.1167 8.10443L75.983 8.52527ZM56.7804 8.09143L56.6669 7.66469C57.2413 7.51467 57.8281 7.37707 58.4109 7.25584L58.5024 7.6876C57.9269 7.80739 57.3475 7.94327 56.7804 8.09143L56.7804 8.09143ZM72.5596 7.64695C71.9851 7.53039 71.3992 7.42705 70.8181 7.33979L70.8848 6.90358C71.4734 6.99191 72.0669 7.09662 72.6489 7.21461L72.5596 7.64695ZM60.2428 7.37139L60.1737 6.93546C60.7606 6.84404 61.3585 6.76626 61.9505 6.70436L61.9972 7.14315C61.4127 7.20434 60.8224 7.28112 60.2428 7.37139V7.37139ZM69.0629 7.12168C68.4792 7.06409 67.8855 7.02079 67.2986 6.99284L67.3199 6.55217C67.9144 6.5804 68.5157 6.62428 69.1069 6.68259L69.0629 7.12168ZM63.7611 7.00376L63.737 6.56324C64.3314 6.53128 64.9341 6.51419 65.5284 6.51239L65.5298 6.95363C64.943 6.95543 64.3479 6.9723 63.7611 7.00376L63.7611 7.00376Z" fill="#E4E4E4"/>
<path d="M92.327 19.9286C92.1583 19.6905 91.9837 19.4524 91.8081 19.2208L92.164 18.9557C92.3425 19.191 92.5199 19.4331 92.6913 19.6751L92.327 19.9286Z" fill="#E4E4E4"/>
<path d="M72.0549 91.2833C71.7596 91.2458 71.4646 91.2058 71.1697 91.1633L71.2336 90.7267C71.5261 90.7687 71.8187 90.8084 72.1116 90.8457L72.0549 91.2833Z" fill="#E4E4E4"/>
<path d="M69.368 90.8736C68.7722 90.7675 68.1698 90.6498 67.5775 90.5239L67.6709 90.0925C68.2583 90.2174 68.8558 90.3341 69.4467 90.4392L69.368 90.8736ZM65.7999 90.115C65.2113 89.9692 64.6182 89.8118 64.0373 89.6469L64.1597 89.2228C64.7359 89.3862 65.324 89.5424 65.9079 89.687L65.7999 90.115ZM62.2916 89.1203C61.7143 88.9356 61.1333 88.7389 60.5648 88.5356L60.7158 88.1205C61.2797 88.3221 61.8559 88.5172 62.4284 88.7005L62.2916 89.1203ZM58.8589 87.8938C58.2971 87.6715 57.7308 87.4366 57.1759 87.1953L57.3547 86.7912C57.9051 87.0305 58.4667 87.2636 59.024 87.484L58.8589 87.8938ZM55.5174 86.441C54.9712 86.1816 54.4222 85.9094 53.8857 85.6321L54.0914 85.2408C54.6236 85.5158 55.1681 85.7858 55.7099 86.0432L55.5174 86.441ZM52.2821 84.7694C51.7567 84.4754 51.2273 84.1675 50.7085 83.8542L50.9402 83.4775C51.4547 83.7881 51.9798 84.0935 52.5009 84.3851L52.2821 84.7694ZM49.1666 82.8876C48.6607 82.5587 48.153 82.2166 47.6578 81.871L47.9141 81.5102C48.4053 81.8531 48.9089 82.1924 49.4108 82.5186L49.1666 82.8876ZM46.1828 80.804C45.6987 80.4398 45.2169 80.0616 44.7507 79.6797L45.0343 79.3396C45.4958 79.7176 45.9727 80.092 46.4519 80.4525L46.1828 80.804ZM43.3668 78.4978C42.9156 78.096 42.4671 77.6795 42.0336 77.2597L42.3447 76.9441C42.7738 77.3595 43.2178 77.7719 43.6644 78.1696L43.3668 78.4978ZM40.7539 75.9674C40.3382 75.5296 39.9264 75.0773 39.5299 74.623L39.8666 74.3342C40.259 74.784 40.6666 75.2317 41.078 75.665L40.7539 75.9674ZM38.3641 73.2286C37.9869 72.7576 37.6149 72.2725 37.2585 71.7868L37.6186 71.5272C37.9713 72.008 38.3395 72.4881 38.7128 72.9542L38.3641 73.2286Z" fill="#E4E4E4"/>
<path d="M36.21 70.2923C36.0448 70.0458 35.8824 69.798 35.7227 69.5488L36.0985 69.3123C36.2565 69.5589 36.4173 69.8042 36.5808 70.0481L36.21 70.2923Z" fill="#E4E4E4"/>
<path d="M131.438 19.0901L125.89 24.1532L130.299 16.8195C126.825 10.5751 121.143 5.17834 121.143 5.17834C121.143 5.17834 109.355 16.3725 109.355 25.1717C109.355 33.971 114.633 37.0434 121.143 37.0434C127.654 37.0434 132.931 33.971 132.931 25.1717C132.931 23.2132 132.346 21.1361 131.438 19.0901Z" fill="#F2F2F2"/>
<path d="M124.463 24.4273V24.861C124.437 29.9026 123.579 33.8362 121.896 36.6061C121.872 36.6469 121.846 36.6855 121.822 36.7263L121.634 36.6126L121.454 36.5009C123.321 33.5099 123.982 29.2821 124.006 24.8846C124.008 24.7429 124.01 24.5991 124.008 24.4552C124.001 22.5936 123.887 20.7105 123.702 18.8811C123.689 18.7394 123.674 18.5955 123.659 18.4517C123.403 16.0382 123.035 13.7322 122.658 11.7288C122.632 11.5871 122.604 11.4454 122.576 11.3058C121.924 7.91759 121.259 5.46336 121.107 4.92012C121.09 4.85356 121.079 4.81706 121.077 4.80847L121.283 4.7505L121.285 4.74835L121.493 4.69037C121.495 4.69897 121.532 4.82136 121.592 5.04896C121.824 5.89923 122.426 8.20746 123.018 11.2522C123.044 11.3896 123.072 11.5313 123.098 11.673C123.406 13.2984 123.707 15.115 123.945 17.0216C124.006 17.5005 124.06 17.9729 124.107 18.4388C124.125 18.5826 124.14 18.7265 124.153 18.8682C124.352 20.8458 124.456 22.6988 124.463 24.4273Z" fill="white"/>
<path d="M123.018 11.2521C122.873 11.2715 122.725 11.2908 122.576 11.3058C122.17 11.3472 121.762 11.368 121.354 11.3681C119.615 11.3704 117.897 10.9859 116.328 10.243C116.237 10.3568 116.146 10.4706 116.053 10.5865C117.704 11.3852 119.517 11.7994 121.354 11.7975C121.79 11.7974 122.225 11.7745 122.658 11.7288C122.805 11.7138 122.953 11.6945 123.098 11.673C124.296 11.5027 125.461 11.153 126.553 10.6359C126.46 10.5178 126.369 10.4019 126.28 10.2881C125.247 10.7669 124.147 11.0918 123.018 11.2521Z" fill="white"/>
<path d="M124.107 18.4388C123.958 18.4474 123.809 18.4516 123.659 18.4517C123.614 18.4538 123.566 18.4538 123.52 18.4538C121.636 18.4538 119.779 18.0022 118.109 17.1374C116.439 16.2727 115.004 15.0204 113.928 13.4874C113.841 13.614 113.754 13.7407 113.67 13.8696C114.792 15.4207 116.271 16.6846 117.984 17.5565C119.697 18.4283 121.595 18.8832 123.52 18.8832C123.581 18.8832 123.642 18.8832 123.702 18.8811C123.854 18.8789 124.003 18.8746 124.153 18.8682C126.466 18.7508 128.696 17.9755 130.576 16.6351C130.507 16.5085 130.438 16.3818 130.366 16.2551C128.539 17.5711 126.364 18.33 124.107 18.4388Z" fill="white"/>
<path d="M124.463 24.4273C124.311 24.4402 124.159 24.4487 124.008 24.4552C123.845 24.4616 123.683 24.4659 123.52 24.4659C120.988 24.463 118.525 23.6473 116.5 22.1408C114.475 20.6343 112.996 18.5181 112.286 16.1091C112.188 16.283 112.091 16.4548 111.998 16.6287C112.798 19.0321 114.342 21.1245 116.411 22.6085C118.479 24.0925 120.967 24.8927 123.52 24.8954C123.683 24.8954 123.845 24.8932 124.006 24.8846C124.159 24.8803 124.311 24.8717 124.463 24.861C127.526 24.6235 130.383 23.2412 132.457 20.9939C132.411 20.835 132.359 20.6783 132.307 20.5194C130.304 22.7835 127.491 24.1852 124.463 24.4273Z" fill="white"/>
<path d="M17.8631 22.596L21.4822 29.1545L15.3652 23.1439C8.41301 24.9795 1.75833 29.1432 1.75833 29.1432C1.75833 29.1432 9.87549 43.1823 18.4912 45.3047C27.1069 47.4272 31.3882 43.0917 32.9586 36.8293C34.5289 30.5671 32.7937 24.7494 24.1779 22.6269C22.2603 22.1545 20.0855 22.2161 17.8631 22.596Z" fill="#F2F2F2"/>
<path d="M21.4064 30.5932L21.831 30.6978C26.7612 31.9389 30.4058 33.7129 32.7119 36.0001C32.7461 36.0329 32.7776 36.0672 32.8118 36.1L32.6549 36.2538L32.5022 36.3998C30.0241 33.8822 26.0438 32.2268 21.7439 31.1432C21.6057 31.107 21.4653 31.0702 21.324 31.0376C19.4996 30.5948 17.6281 30.251 15.7925 29.9869C15.6506 29.9652 15.5061 29.9451 15.3616 29.925C12.9368 29.5887 10.59 29.3867 8.53758 29.2661C8.39254 29.2569 8.247 29.2498 8.10355 29.2432C4.62871 29.0532 2.06527 29.1009 1.49678 29.1158C1.42743 29.1164 1.38908 29.118 1.38015 29.118L1.37302 28.9061L1.37144 28.9035L1.36484 28.6894C1.37378 28.6894 1.5025 28.6835 1.73998 28.6801C2.62842 28.6622 5.03375 28.6397 8.15758 28.8052C8.29841 28.8133 8.44396 28.8204 8.58899 28.8296C10.2547 28.9258 12.1059 29.0743 14.0303 29.305C14.5138 29.3621 14.9894 29.424 15.4571 29.4905C15.6021 29.5086 15.7467 29.5287 15.8886 29.5504C17.8729 29.8356 19.7122 30.1832 21.4064 30.5932Z" fill="white"/>
<path d="M8.15758 28.8052C8.1415 28.9495 8.1249 29.0958 8.10355 29.2432C8.04619 29.6437 7.96818 30.0409 7.86981 30.4335C7.45256 32.1069 6.66183 33.6662 5.55588 34.9965C5.64535 35.1115 5.73484 35.2264 5.82589 35.344C7.00613 33.9487 7.84905 32.3046 8.29029 30.5371C8.39525 30.118 8.4778 29.6938 8.53758 29.2661C8.55839 29.1207 8.575 28.9744 8.58899 28.8296C8.7112 27.6361 8.64984 26.4311 8.40698 25.2558C8.26888 25.3169 8.13341 25.3765 8.00056 25.4345C8.22008 26.5442 8.27299 27.6801 8.15758 28.8052Z" fill="white"/>
<path d="M15.4571 29.4905C15.4295 29.6363 15.3976 29.7811 15.3616 29.9249C15.3527 29.9692 15.3412 30.015 15.3302 30.0588C14.8757 31.8714 13.9857 33.5483 12.7361 34.9463C11.4865 36.3444 9.91432 37.4222 8.15363 38.0879C8.25676 38.2018 8.3599 38.3157 8.46566 38.428C10.2551 37.7229 11.8493 36.6054 13.1162 35.1679C14.383 33.7305 15.2862 32.0146 15.7507 30.1624C15.7653 30.104 15.78 30.0457 15.7925 29.9868C15.827 29.8405 15.8588 29.6956 15.8886 29.5503C16.3315 27.2971 16.1103 24.9651 15.2514 22.8333C15.1107 22.8694 14.9699 22.9055 14.8286 22.9437C15.6764 25.0189 15.8948 27.2941 15.4571 29.4905Z" fill="white"/>
<path d="M21.4064 30.5932C21.3824 30.7422 21.3542 30.8901 21.324 31.0375C21.2911 31.1953 21.2561 31.3527 21.2169 31.509C20.6033 33.9439 19.2104 36.1164 17.2469 37.7011C15.2833 39.2859 12.8546 40.1976 10.3246 40.2997C10.4713 40.4355 10.616 40.5707 10.7638 40.7022C13.3102 40.5121 15.7313 39.5315 17.6833 37.8998C19.6353 36.268 21.0188 34.0681 21.6374 31.6125C21.6766 31.4563 21.7137 31.2994 21.7439 31.1432C21.7768 30.9942 21.805 30.8463 21.8311 30.6978C22.3373 27.6942 21.6731 24.6122 19.9728 22.0759C19.8063 22.0813 19.6403 22.0935 19.4721 22.1052C21.2059 24.5776 21.8997 27.6222 21.4064 30.5932Z" fill="white"/>
<path d="M27.9986 64.2662L26.6427 62.8978L28.3053 60.3781L31.1509 55.6831C31.0579 55.4809 31.0291 55.2554 31.0682 55.0366C31.1073 54.8177 31.2126 54.6158 31.37 54.4575C31.5274 54.2992 31.7296 54.192 31.9498 54.1501C32.1701 54.1082 32.3979 54.1336 32.6033 54.2228C32.8087 54.312 32.9819 54.461 33.1 54.6499C33.2181 54.8388 33.2756 55.0589 33.2648 55.2809C33.254 55.5029 33.1755 55.7164 33.0396 55.8932C32.9037 56.07 32.7168 56.2017 32.5038 56.271L30.1549 61.2832L27.9986 64.2662Z" fill="#A0616A"/>
<path d="M26.4966 67.3903C26.3374 67.6347 26.1105 67.8285 25.8432 67.9485C25.5758 68.0684 25.2792 68.1096 24.9889 68.067C24.7126 68.0346 24.4518 67.923 24.2385 67.7459C24.0253 67.5687 23.8689 67.3337 23.7885 67.0696C23.7293 66.8822 23.7121 66.6843 23.738 66.4896C23.7639 66.2949 23.8324 66.1082 23.9386 65.9424C24.8457 64.4267 26.5187 62.4251 26.5355 62.4051L26.5621 62.3733L29.3838 62.9792L26.4966 67.3903Z" fill="#6C63FF"/>
<path d="M50.6366 12.7618L50.3047 12.863L47.5058 3.85246C47.0762 2.46933 46.1098 1.31202 44.8192 0.635109C43.5287 -0.0417985 42.0197 -0.182852 40.6242 0.242982H40.6242L21.3637 6.12043C20.6727 6.33128 20.0304 6.67495 19.4735 7.13184C18.9165 7.58872 18.4558 8.14986 18.1176 8.78322C17.7795 9.41658 17.5705 10.1098 17.5026 10.8232C17.4347 11.5366 17.5093 12.2563 17.722 12.9411V12.9411L33.0771 62.3739C33.5067 63.757 34.4731 64.9144 35.7637 65.5913C37.0542 66.2682 38.5632 66.4092 39.9587 65.9834H39.9587L59.2192 60.106C60.6147 59.6801 61.7823 58.7223 62.4653 57.4432C63.1482 56.164 63.2905 54.6684 62.8609 53.2853V53.2852L52.297 19.2769L52.6289 19.1757L50.6366 12.7618Z" fill="#3F3D56"/>
<path d="M41.258 1.53502L38.7438 2.30222C38.9467 2.54789 39.0855 2.83925 39.1481 3.15062C39.2106 3.46199 39.1949 3.78383 39.1024 4.08777C39.0098 4.39171 38.8433 4.66844 38.6175 4.89357C38.3916 5.1187 38.1134 5.28532 37.8072 5.37876L26.7731 8.74588C26.467 8.83927 26.1424 8.85662 25.8279 8.79637C25.5134 8.73613 25.2187 8.60016 24.9697 8.40043C24.7207 8.2007 24.5251 7.94334 24.4001 7.65103C24.2751 7.35873 24.2245 7.04043 24.2529 6.7242L21.9047 7.44077C20.8626 7.75878 19.9906 8.47408 19.4806 9.42932C18.9705 10.3846 18.8643 11.5015 19.1851 12.5344L34.5177 61.8946C34.8385 62.9276 35.5602 63.7918 36.524 64.2973C37.4877 64.8028 38.6146 64.9082 39.6568 64.5902H39.6568L59.0101 58.6844C60.0522 58.3664 60.9242 57.6511 61.4342 56.6959C61.9442 55.7406 62.0505 54.6237 61.7296 53.5908L46.397 4.23053C46.0762 3.19763 45.3545 2.33336 44.3907 1.82786C43.427 1.32235 42.3001 1.21701 41.258 1.53502Z" fill="white"/>
<path d="M119.181 109.302L73.9987 93.2046C72.9283 92.8219 72.0547 92.0339 71.5696 91.0135C71.0846 89.9932 71.0277 88.8239 71.4114 87.762L94.9649 22.8176C95.351 21.7566 96.146 20.8908 97.1755 20.41C98.2049 19.9293 99.3847 19.8729 100.456 20.2532L145.638 36.3508C146.708 36.7335 147.582 37.5215 148.067 38.5418C148.552 39.5622 148.609 40.7315 148.225 41.7934L124.672 106.738C124.286 107.799 123.491 108.665 122.461 109.145C121.432 109.626 120.252 109.682 119.181 109.302Z" fill="#3F3D56"/>
<path d="M120.187 106.776L74.8456 90.6219C74.5156 90.5039 74.2463 90.261 74.0968 89.9465C73.9473 89.632 73.9297 89.2715 74.048 88.9442L97.7574 23.5697C97.8764 23.2427 98.1215 22.9758 98.4389 22.8276C98.7562 22.6794 99.1199 22.662 99.4501 22.7792L144.791 38.9334C145.121 39.0514 145.39 39.2943 145.54 39.6089C145.689 39.9234 145.707 40.2839 145.589 40.6112L121.879 105.986C121.76 106.313 121.515 106.58 121.198 106.728C120.88 106.876 120.517 106.893 120.187 106.776Z" fill="white"/>
<path d="M122.431 29.8288C122.632 29.8288 122.796 29.6668 122.796 29.4669C122.796 29.267 122.632 29.105 122.431 29.105C122.229 29.105 122.065 29.267 122.065 29.4669C122.065 29.6668 122.229 29.8288 122.431 29.8288Z" fill="white"/>
<path d="M47.3781 39.36C51.2288 35.5433 51.2288 29.3552 47.3781 25.5384C43.5273 21.7217 37.2839 21.7217 33.4331 25.5384C29.5823 29.3552 29.5823 35.5433 33.4331 39.36C37.2839 43.1767 43.5273 43.1767 47.3781 39.36Z" fill="#8AFF99"/>
<path d="M41.4381 37.1133L36.5574 33.8316L36.9836 33.2093L41.0242 35.9263L43.9446 26.8715L44.6669 27.1003L41.4381 37.1133Z" fill="white"/>
<path d="M118.685 72.6774C123.562 67.8433 123.562 60.0056 118.685 55.1715C113.807 50.3373 105.9 50.3373 101.023 55.1715C96.1452 60.0056 96.1452 67.8433 101.023 72.6774C105.9 77.5116 113.807 77.5115 118.685 72.6774Z" fill="#8AFF99"/>
<path d="M106.841 69.1839L105.048 61.9968L105.981 61.7684L107.466 67.7187L117.952 61.641L118.437 62.4627L106.841 69.1839Z" fill="white"/>
<path d="M28.7847 100.932H30.4708L31.2728 94.4867L28.7844 94.4868L28.7847 100.932Z" fill="#A0616A"/>
<path d="M28.3547 100.387L31.675 100.387H31.6751C32.2363 100.387 32.7745 100.608 33.1713 101.001C33.5681 101.394 33.7911 101.928 33.7911 102.484V102.552L28.3548 102.552L28.3547 100.387Z" fill="#2F2E41"/>
<path d="M15.657 100.209L17.324 100.459L19.0893 94.2045L16.9039 93.8359L15.657 100.209Z" fill="#A0616A"/>
<path d="M15.314 99.6058L18.5971 100.098L18.5972 100.098C19.1521 100.181 19.6509 100.479 19.9839 100.927C20.317 101.374 20.457 101.935 20.3731 102.485L20.3628 102.552L14.9875 101.747L15.314 99.6058Z" fill="#2F2E41"/>
<path d="M25.422 70.5463L29.3427 69.7L31.5417 75.9304L31.6105 99.9883L28.4101 99.9684L27.0723 80.4966L18.546 98.4889L15.1079 98.08L22.6028 78.7928C22.6028 78.7928 22.1903 75.3852 23.4967 73.6814L23.2217 71.9094L25.422 70.5463Z" fill="#2F2E41"/>
<path d="M21.7414 65.9654C21.6523 65.7 21.6428 65.4147 21.7142 65.1441C21.7855 64.8736 21.9346 64.6293 22.1433 64.4411L22.972 63.6945L25.3083 63.3044L26.7692 63.0412L30.2331 71.612L23.4145 72.3816C22.9141 72.2745 22.7141 72.0031 23.0053 71.4636L21.7414 65.9654Z" fill="#8AFF99"/>
<path d="M29.9973 64.546L29.8022 62.6377L32.6891 61.7015L37.8715 59.8006C37.9265 59.5851 38.0462 59.3913 38.2148 59.2447C38.3834 59.0981 38.5929 59.0057 38.8156 58.9798C39.0383 58.9538 39.2637 58.9954 39.462 59.0992C39.6603 59.2029 39.8222 59.3639 39.9262 59.5608C40.0302 59.7577 40.0714 59.9813 40.0444 60.2019C40.0175 60.4226 39.9235 60.6299 39.7751 60.7965C39.6266 60.9631 39.4306 61.0811 39.2131 61.1348C38.9955 61.1886 38.7665 61.1757 38.5566 61.0977L33.5618 63.5541L29.9973 64.546Z" fill="#A0616A"/>
<path d="M26.8543 66.0535C26.5759 66.1456 26.2766 66.1562 25.9923 66.0842C25.708 66.0122 25.4506 65.8605 25.2509 65.6473C25.0557 65.4508 24.9226 65.2021 24.8679 64.9317C24.8133 64.6613 24.8394 64.381 24.9431 64.1251C25.0151 63.9422 25.1265 63.777 25.2696 63.6411C25.4126 63.5052 25.5838 63.4019 25.7713 63.3384C27.4352 62.7176 30.0036 62.1921 30.0293 62.1868L30.0701 62.1785L31.8902 64.4L26.8543 66.0535Z" fill="#8AFF99"/>
<path d="M24.283 62.484C25.6994 62.484 26.8476 61.3459 26.8476 59.942C26.8476 58.5382 25.6994 57.4001 24.283 57.4001C22.8666 57.4001 21.7184 58.5382 21.7184 59.942C21.7184 61.3459 22.8666 62.484 24.283 62.484Z" fill="#A0616A"/>
<path d="M22.2066 63.5633C21.8089 63.5633 21.4116 63.5392 21.0168 63.4914L20.9627 63.4849L20.5496 61.262C20.3744 60.3197 20.5697 59.3467 21.0955 58.5427C21.6213 57.7386 22.4377 57.1645 23.3771 56.9382C23.4398 56.9225 23.5056 56.9242 23.5674 56.9432C23.6292 56.9621 23.6845 56.9976 23.7272 57.0457L23.8257 57.0116C24.2029 56.8813 24.6024 56.8258 25.0012 56.8484C25.4 56.8711 25.7905 56.9713 26.1502 57.1435C26.5099 57.3157 26.8319 57.5564 27.0978 57.8519C27.3637 58.1475 27.5682 58.492 27.6997 58.8659L27.7241 58.9353L27.0667 59.1625C26.8618 59.2334 26.6754 59.3485 26.5211 59.4997C26.3668 59.6509 26.2485 59.8342 26.1747 60.0364C26.1008 60.2387 26.0734 60.4546 26.0944 60.6687C26.1154 60.8827 26.1842 61.0894 26.296 61.2737L26.9682 62.383L26.8966 62.4185C25.4457 63.16 23.839 63.5522 22.2066 63.5633Z" fill="#2F2E41"/>
<path d="M56.6862 102.793H0.148393C0.109037 102.793 0.0712924 102.778 0.0434632 102.75C0.0156341 102.722 0 102.685 0 102.646C0 102.607 0.0156341 102.57 0.0434632 102.542C0.0712924 102.514 0.109037 102.499 0.148393 102.499H56.6862C56.7256 102.499 56.7633 102.514 56.7911 102.542C56.819 102.57 56.8346 102.607 56.8346 102.646C56.8346 102.685 56.819 102.722 56.7911 102.75C56.7633 102.778 56.7256 102.793 56.6862 102.793Z" fill="#CACACA"/>
<path d="M156.852 110H100.314C100.274 110 100.237 109.984 100.209 109.957C100.181 109.929 100.165 109.892 100.165 109.853C100.165 109.814 100.181 109.776 100.209 109.749C100.237 109.721 100.274 109.706 100.314 109.706H156.852C156.891 109.706 156.929 109.721 156.957 109.749C156.984 109.776 157 109.814 157 109.853C157 109.892 156.984 109.929 156.957 109.957C156.929 109.984 156.891 110 156.852 110Z" fill="#CACACA"/>
<path d="M126.145 84.33C126.27 84.2259 126.371 84.0959 126.44 83.949C126.509 83.8021 126.545 83.642 126.545 83.4799C126.545 83.3179 126.509 83.1578 126.44 83.0109C126.371 82.8641 126.27 82.7341 126.144 82.63L125.313 68.1246L122.94 68.6563L124.509 82.8228C124.346 83.0431 124.271 83.3149 124.297 83.5865C124.324 83.8581 124.45 84.1108 124.651 84.2966C124.853 84.4824 125.116 84.5884 125.392 84.5945C125.667 84.6007 125.935 84.5066 126.145 84.33H126.145Z" fill="#9F616A"/>
<path d="M135.779 86.2189C135.65 86.1194 135.544 85.993 135.47 85.8487C135.395 85.7044 135.354 85.5457 135.348 85.3838C135.342 85.2218 135.372 85.0605 135.436 84.9113C135.499 84.762 135.595 84.6285 135.717 84.52L136.018 69.9943L138.409 70.4404L137.358 84.6539C137.529 84.8683 137.614 85.1372 137.598 85.4096C137.581 85.682 137.465 85.939 137.27 86.1319C137.075 86.3248 136.816 86.4402 136.541 86.4562C136.266 86.4723 135.995 86.3878 135.779 86.2189Z" fill="#9F616A"/>
<path d="M137.044 107.807L138.905 107.807L139.436 103.503L137.043 103.503L137.044 107.807Z" fill="#9F616A"/>
<path d="M136.569 107.204L140.235 107.204H140.235C140.854 107.204 141.449 107.448 141.887 107.883C142.325 108.317 142.571 108.906 142.571 109.52V109.595L136.569 109.595L136.569 107.204Z" fill="#2F2E41"/>
<path d="M125.428 107.807L127.289 107.807L127.82 100.69H125.428L125.428 107.807Z" fill="#9F616A"/>
<path d="M124.953 107.204L128.619 107.204H128.619C129.239 107.204 129.833 107.448 130.271 107.883C130.709 108.317 130.955 108.906 130.955 109.52V109.595L124.953 109.595L124.953 107.204Z" fill="#2F2E41"/>
<path d="M132.926 61.8668C134.608 61.8668 135.972 60.5153 135.972 58.8483C135.972 57.1812 134.608 55.8298 132.926 55.8298C131.245 55.8298 129.881 57.1812 129.881 58.8483C129.881 60.5153 131.245 61.8668 132.926 61.8668Z" fill="#9F616A"/>
<path d="M136.797 65.8136C136.797 65.8136 138.151 65.9254 138.263 66.5962C138.376 67.2669 138.263 69.2793 138.263 69.2793C138.263 69.2793 139.166 71.9624 138.263 72.6331C137.361 73.3039 134.992 73.4157 134.992 73.4157L136.797 65.8136Z" fill="#E4E4E4"/>
<path d="M125.292 81.0179L124.051 83.0302C124.051 83.0302 124.503 91.8621 124.615 92.0857C124.705 92.2169 124.745 92.3753 124.728 92.5329V93.7626L125.067 104.495C125.067 104.495 124.164 104.942 125.292 105.278C126.42 105.613 127.886 105.725 128.112 104.607C128.338 103.489 128.348 94.1753 128.338 93.8744L128.45 93.4273L130.255 86.8313L134.428 95.9986L136.91 106.284C136.91 106.284 140.665 106.714 139.989 105.26C139.312 103.807 137.699 92.9801 137.699 92.9801C137.699 92.9801 137.361 91.8621 137.361 91.6385C137.361 91.4149 137.248 91.3031 137.248 91.0795C137.248 90.8559 137.135 90.1852 137.135 90.1852L136.346 83.142L125.292 81.0179Z" fill="#2F2E41"/>
<path d="M126.42 63.9131C126.42 63.9131 125.067 63.8013 124.728 64.9192C124.39 66.0372 121.57 70.2855 122.134 70.7327C122.698 71.1798 126.984 72.745 127.097 72.6332C127.21 72.5214 126.42 63.9131 126.42 63.9131Z" fill="#E4E4E4"/>
<path d="M136.473 56.9234C136.345 56.4518 136.165 55.9805 135.798 55.6547C135.426 55.3271 134.949 55.1409 134.452 55.1292C133.884 54.8032 133.247 54.6141 132.592 54.5773C131.937 54.5404 131.283 54.6569 130.682 54.9173C130.617 54.7871 130.511 54.6808 130.381 54.6139C130.345 54.9243 130.309 55.2347 130.273 55.5452C130.133 55.4408 129.993 55.3365 129.853 55.2321C129.846 55.4159 129.839 55.5996 129.832 55.7833C129.704 55.6741 129.576 55.5648 129.448 55.4555C129.42 56.1062 129.967 56.6695 130.584 56.8913C131.202 57.1131 131.879 57.0722 132.536 57.0414C132.86 57.0262 133.229 57.0317 133.448 57.2692C133.677 57.5181 133.634 57.8995 133.639 58.2363C133.647 58.7101 134.138 58.478 134.384 58.8842C134.49 59.0188 134.556 59.1799 134.575 59.3495C134.552 59.5035 134.495 59.6506 134.41 59.7811C134.228 60.152 133.868 61.3059 134.04 61.681C134.358 61.5045 134.677 61.3279 134.995 61.1514C134.995 61.1514 137.092 59.206 136.473 56.9234Z" fill="#2F2E41"/>
<path d="M135.895 72.2978C135.895 72.2978 138.151 66.5962 138.038 66.149C137.925 65.7018 135.111 63.8669 135.111 63.8669C135.004 63.8537 134.902 63.841 134.799 63.8282C134.815 63.7888 134.825 63.7476 134.83 63.7057L134.878 63.268C134.893 63.1322 134.853 62.996 134.767 62.8894C134.681 62.7828 134.555 62.7146 134.418 62.6997L130.842 62.3111C130.705 62.2962 130.568 62.3358 130.46 62.4214C130.352 62.5069 130.284 62.6313 130.269 62.7671L130.227 63.1456C130.038 63.0993 130.029 63.081 130.029 63.081C130.029 63.081 126.871 63.5777 126.082 63.8013C125.292 64.0249 125.969 72.5214 125.969 72.5214C125.969 72.5214 125.405 80.3471 125.067 80.5707C124.728 80.7943 125.067 80.6825 124.728 81.5769C124.684 81.6948 125.307 81.0362 125.574 81.1856C127.334 82.169 134.471 84.4688 136.233 84.3717C136.797 78.5431 135.669 76.6578 135.669 76.6578L135.895 72.2978Z" fill="#E4E4E4"/>
</svg>
