<svg width="156" height="102" viewBox="0 0 156 102" fill="none" xmlns="http://www.w3.org/2000/svg">
<g clip-path="url(#clip0)">
<path d="M151.777 101.775L152.008 101.77C151.918 99.2024 151.644 96.6443 151.187 94.1158C150.186 88.7023 148.523 85.147 146.243 83.5486L146.11 83.7376C151.437 87.4714 151.774 101.632 151.777 101.775Z" fill="#F1F1F1"/>
<path d="M148.885 101.719L149.116 101.715C149.111 101.459 148.967 95.4316 146.59 93.7656L146.457 93.9546C148.738 95.5534 148.884 101.658 148.885 101.719Z" fill="#F1F1F1"/>
<path d="M144.794 83.7586C145.432 83.7586 145.95 83.2416 145.95 82.6039C145.95 81.9661 145.432 81.4492 144.794 81.4492C144.155 81.4492 143.637 81.9661 143.637 82.6039C143.637 83.2416 144.155 83.7586 144.794 83.7586Z" fill="#F1F1F1"/>
<path d="M145.366 93.6894C146.005 93.6894 146.523 93.1724 146.523 92.5346C146.523 91.8969 146.005 91.3799 145.366 91.3799C144.728 91.3799 144.21 91.8969 144.21 92.5346C144.21 93.1724 144.728 93.6894 145.366 93.6894Z" fill="#F1F1F1"/>
<path d="M149.424 84.4509C149.308 85.3416 149.428 86.2471 149.773 87.0768C150.375 86.405 150.77 85.5737 150.91 84.6831C151.049 83.7924 150.928 82.8805 150.56 82.0571C149.978 82.7419 149.586 83.5674 149.424 84.4509Z" fill="#F1F1F1"/>
<path d="M145.643 87.8173C146.501 88.0865 147.416 88.1259 148.294 87.9316C147.736 87.2227 146.985 86.6899 146.131 86.3974C145.277 86.1049 144.356 86.0652 143.48 86.2831C144.054 86.9748 144.8 87.5038 145.643 87.8173Z" fill="#F1F1F1"/>
<path d="M145.6 96.6119C146.202 96.8006 146.843 96.8282 147.458 96.692C147.067 96.1951 146.541 95.8216 145.942 95.6166C145.344 95.4116 144.698 95.3838 144.084 95.5365C144.486 96.0213 145.009 96.3922 145.6 96.6119Z" fill="#F1F1F1"/>
<path d="M53.2639 101.775L52.9282 101.768C53.058 98.0411 53.4564 94.3281 54.1201 90.6581C55.5721 82.8006 57.9866 77.6402 61.2964 75.3203L61.4892 75.5946C53.7575 81.0139 53.2679 101.568 53.2639 101.775Z" fill="#F1F1F1"/>
<path d="M57.4613 101.695L57.1255 101.688C57.1327 101.317 57.3426 92.5679 60.7927 90.1497L60.9855 90.424C57.6746 92.7447 57.4629 101.605 57.4613 101.695Z" fill="#F1F1F1"/>
<path d="M63.3994 75.625C64.3267 75.625 65.0784 74.8746 65.0784 73.9489C65.0784 73.0233 64.3267 72.2729 63.3994 72.2729C62.4722 72.2729 61.7205 73.0233 61.7205 73.9489C61.7205 74.8746 62.4722 75.625 63.3994 75.625Z" fill="#F1F1F1"/>
<path d="M62.568 90.0391C63.4953 90.0391 64.2469 89.2887 64.2469 88.363C64.2469 87.4373 63.4953 86.687 62.568 86.687C61.6408 86.687 60.8891 87.4373 60.8891 88.363C60.8891 89.2887 61.6408 90.0391 62.568 90.0391Z" fill="#F1F1F1"/>
<path d="M56.6787 76.6297C56.8469 77.9226 56.6722 79.2369 56.1718 80.4412C55.2979 79.466 54.7251 78.2594 54.5223 76.9667C54.3196 75.674 54.4956 74.3504 55.0292 73.1553C55.8743 74.1493 56.4431 75.3474 56.6787 76.6297Z" fill="#F1F1F1"/>
<path d="M62.1666 81.5161C60.9206 81.9067 59.5938 81.9639 58.3187 81.6819C59.1283 80.6529 60.2187 79.8796 61.4584 79.4551C62.6982 79.0305 64.0345 78.9729 65.3063 79.2892C64.4731 80.2931 63.3904 81.061 62.1666 81.5161Z" fill="#F1F1F1"/>
<path d="M62.2286 94.2811C61.3553 94.5549 60.4253 94.595 59.5316 94.3974C60.099 93.6761 60.8633 93.1341 61.7322 92.8365C62.6012 92.5389 63.5378 92.4986 64.4293 92.7202C63.8453 93.4239 63.0864 93.9621 62.2286 94.2811Z" fill="#F1F1F1"/>
<path d="M27.3244 30.399L26.5165 25.4653L24.2355 24.896C24.2355 24.896 22.4252 24.3394 22.0021 27.9796C21.5789 31.6199 21.907 38.4164 21.907 38.4164L16.899 54.2482C16.5144 54.4307 16.1907 54.7199 15.9665 55.0812C15.7423 55.4426 15.6273 55.8608 15.635 56.2857C15.6428 56.7107 15.773 57.1244 16.0102 57.4774C16.2474 57.8304 16.5815 58.1076 16.9724 58.2759C17.3634 58.4443 17.7946 58.4966 18.2146 58.4266C18.6345 58.3566 19.0254 58.1672 19.3403 57.8812C19.6552 57.5952 19.8809 57.2246 19.9904 56.8139C20.0998 56.4031 20.0884 55.9696 19.9574 55.5652L26.469 40.6935L27.3244 30.399Z" fill="#FFB7B7"/>
<path d="M41.195 26.5165L39.9975 21.6623L41.8714 20.2446C41.8714 20.2446 43.3174 19.0231 45.1383 22.2051C46.9592 25.3872 49.3307 31.7665 49.3307 31.7665L60.1633 44.364C60.5887 44.381 61.0002 44.5201 61.3485 44.7646C61.6967 45.0091 61.9671 45.3485 62.1271 45.7424C62.2871 46.1363 62.33 46.5679 62.2507 46.9855C62.1714 47.4031 61.9732 47.789 61.6798 48.097C61.3865 48.4051 61.0104 48.6222 60.5967 48.7225C60.1829 48.8227 59.749 48.8017 59.3469 48.6621C58.9447 48.5225 58.5914 48.2702 58.3292 47.9353C58.067 47.6004 57.907 47.1972 57.8684 46.774L46.0306 35.649L41.195 26.5165Z" fill="#FFB7B7"/>
<path d="M50.5563 99.1895L53.2727 99.1893L54.5651 88.7295L50.5557 88.7297L50.5563 99.1895Z" fill="#FFB7B7"/>
<path d="M49.8633 98.304L55.213 98.3038H55.2132C56.1174 98.3038 56.9845 98.6624 57.6238 99.3006C58.2632 99.9389 58.6224 100.805 58.6225 101.707V101.818L49.8635 101.818L49.8633 98.304Z" fill="#2F2E41"/>
<path d="M16.434 99.1895L19.1504 99.1893L20.4428 88.7295L16.4334 88.7297L16.434 99.1895Z" fill="#FFB7B7"/>
<path d="M15.7411 98.304L21.0908 98.3038H21.091C21.9951 98.3038 22.8622 98.6624 23.5016 99.3006C24.1409 99.9389 24.5001 100.805 24.5002 101.707V101.818L15.7413 101.818L15.7411 98.304Z" fill="#2F2E41"/>
<path d="M33.0943 17.2198C37.152 17.2198 40.4414 13.9361 40.4414 9.88531C40.4414 5.83456 37.152 2.55078 33.0943 2.55078C29.0366 2.55078 25.7473 5.83456 25.7473 9.88531C25.7473 13.9361 29.0366 17.2198 33.0943 17.2198Z" fill="#2F2E41"/>
<path d="M27.3595 5.93075C28.5468 4.74552 28.7874 3.06409 27.897 2.17516C27.0065 1.28624 25.3222 1.52644 24.135 2.71167C22.9477 3.89691 22.7071 5.57834 23.5975 6.46727C24.488 7.35619 26.1723 7.11598 27.3595 5.93075Z" fill="#2F2E41"/>
<path d="M40.7519 3.6016C41.2466 2.44553 40.3959 0.974577 38.8518 0.316134C37.3077 -0.342309 35.655 0.0610989 35.1603 1.21717C34.6657 2.37324 35.5164 3.8442 37.0604 4.50264C38.6045 5.16109 40.2572 4.75768 40.7519 3.6016Z" fill="#2F2E41"/>
<path d="M38.7985 14.622C40.4503 11.6055 39.3398 7.82332 36.3181 6.17434C33.2965 4.52535 29.5078 5.63397 27.856 8.6505C26.2042 11.667 27.3147 15.4492 30.3364 17.0982C33.3581 18.7472 37.1467 17.6386 38.7985 14.622Z" fill="#FFB7B7"/>
<path d="M26.7754 7.7209C28.2003 8.70129 29.8915 9.22306 31.622 9.21615C31.0047 9.64344 30.302 9.93206 29.5622 10.0621C31.863 10.5548 34.241 10.5682 36.5472 10.1013C37.0599 10.0193 37.5545 9.84965 38.0095 9.59995C38.2362 9.47355 38.4337 9.30094 38.5892 9.09332C38.7447 8.88571 38.8547 8.64775 38.912 8.39492C39.0653 7.52093 38.3831 6.72689 37.6742 6.19175C36.5887 5.38491 35.3372 4.82902 34.0101 4.56429C32.6831 4.29956 31.3137 4.33262 30.001 4.66105C29.1438 4.88223 28.2852 5.25594 27.7284 5.94312C27.1717 6.6303 27.0068 7.6897 27.5372 8.39731L26.7754 7.7209Z" fill="#2F2E41"/>
<path d="M30.2024 19.7309L24.0307 24.7625L29.4232 37.5981L29.526 39.6517C29.526 39.6517 23.9282 44.8042 20.4646 59.1973C17.001 73.5905 10.0055 92.7156 10.0055 92.7156L24.0003 96.1333L33.7306 63.5745L46.1344 89.1179L47.899 96.673L58.717 93.6749L54.5419 73.4001L44.3018 41.9285L45.1427 33.2342C45.1427 33.2342 47.0165 28.8945 43.7612 24.3L42.7401 19.9828L37.4545 19.0834L30.2024 19.7309Z" fill="#2F2E41"/>
<path d="M133.981 65.41H91.134C90.7919 65.4096 90.4638 65.2737 90.2219 65.0322C89.9799 64.7906 89.8438 64.4632 89.8434 64.1216V49.6917C89.8438 49.3501 89.9799 49.0227 90.2219 48.7811C90.4638 48.5396 90.7919 48.4037 91.134 48.4033H133.981C134.324 48.4037 134.652 48.5396 134.894 48.7811C135.136 49.0226 135.272 49.3501 135.272 49.6917V64.1216C135.272 64.4632 135.136 64.7906 134.894 65.0322C134.652 65.2737 134.324 65.4096 133.981 65.41Z" fill="#E5E5E5"/>
<path d="M107.912 52.2684H96.5545V53.5568H107.912V52.2684Z" fill="white"/>
<path d="M122.882 53.8145C123.31 53.8145 123.657 53.4684 123.657 53.0415C123.657 52.6145 123.31 52.2684 122.882 52.2684C122.455 52.2684 122.108 52.6145 122.108 53.0415C122.108 53.4684 122.455 53.8145 122.882 53.8145Z" fill="#8AFF99"/>
<path d="M125.464 53.8145C125.891 53.8145 126.238 53.4684 126.238 53.0415C126.238 52.6145 125.891 52.2684 125.464 52.2684C125.036 52.2684 124.689 52.6145 124.689 53.0415C124.689 53.4684 125.036 53.8145 125.464 53.8145Z" fill="#8AFF99"/>
<path d="M128.045 53.8145C128.472 53.8145 128.819 53.4684 128.819 53.0415C128.819 52.6145 128.472 52.2684 128.045 52.2684C127.617 52.2684 127.27 52.6145 127.27 53.0415C127.27 53.4684 127.617 53.8145 128.045 53.8145Z" fill="#8AFF99"/>
<path d="M133.981 83.705H91.134C90.7919 83.7046 90.4638 83.5687 90.2219 83.3272C89.9799 83.0856 89.8438 82.7582 89.8434 82.4166V67.9867C89.8438 67.6451 89.9799 67.3176 90.2219 67.0761C90.4638 66.8346 90.7919 66.6987 91.134 66.6983H133.981C134.324 66.6987 134.652 66.8346 134.894 67.0761C135.136 67.3176 135.272 67.6451 135.272 67.9867V82.4166C135.272 82.7582 135.136 83.0856 134.894 83.3272C134.652 83.5687 134.324 83.7046 133.981 83.705Z" fill="#E5E5E5"/>
<path d="M107.912 70.5635H96.5545V71.8519H107.912V70.5635Z" fill="white"/>
<path d="M122.882 72.1095C123.31 72.1095 123.657 71.7634 123.657 71.3365C123.657 70.9096 123.31 70.5635 122.882 70.5635C122.455 70.5635 122.108 70.9096 122.108 71.3365C122.108 71.7634 122.455 72.1095 122.882 72.1095Z" fill="#8AFF99"/>
<path d="M125.464 72.1095C125.891 72.1095 126.238 71.7634 126.238 71.3365C126.238 70.9096 125.891 70.5635 125.464 70.5635C125.036 70.5635 124.689 70.9096 124.689 71.3365C124.689 71.7634 125.036 72.1095 125.464 72.1095Z" fill="#8AFF99"/>
<path d="M128.045 72.1095C128.472 72.1095 128.819 71.7634 128.819 71.3365C128.819 70.9096 128.472 70.5635 128.045 70.5635C127.617 70.5635 127.27 70.9096 127.27 71.3365C127.27 71.7634 127.617 72.1095 128.045 72.1095Z" fill="#8AFF99"/>
<path d="M133.981 102H91.134C90.7919 102 90.4638 101.864 90.2219 101.622C89.9799 101.381 89.8438 101.053 89.8434 100.712V86.2817C89.8438 85.9402 89.9799 85.6127 90.2219 85.3711C90.4638 85.1296 90.7919 84.9937 91.134 84.9933H133.981C134.324 84.9937 134.652 85.1296 134.894 85.3711C135.136 85.6127 135.272 85.9402 135.272 86.2817V100.712C135.272 101.053 135.136 101.381 134.894 101.622C134.652 101.864 134.324 102 133.981 102Z" fill="#E5E5E5"/>
<path d="M107.912 88.8585H96.5545V90.1469H107.912V88.8585Z" fill="white"/>
<path d="M122.882 90.4046C123.31 90.4046 123.657 90.0585 123.657 89.6316C123.657 89.2046 123.31 88.8585 122.882 88.8585C122.455 88.8585 122.108 89.2046 122.108 89.6316C122.108 90.0585 122.455 90.4046 122.882 90.4046Z" fill="#8AFF99"/>
<path d="M125.464 90.4046C125.891 90.4046 126.238 90.0585 126.238 89.6316C126.238 89.2046 125.891 88.8585 125.464 88.8585C125.036 88.8585 124.689 89.2046 124.689 89.6316C124.689 90.0585 125.036 90.4046 125.464 90.4046Z" fill="#8AFF99"/>
<path d="M128.045 90.4046C128.472 90.4046 128.819 90.0585 128.819 89.6316C128.819 89.2046 128.472 88.8585 128.045 88.8585C127.617 88.8585 127.27 89.2046 127.27 89.6316C127.27 90.0585 127.617 90.4046 128.045 90.4046Z" fill="#8AFF99"/>
<path d="M82.5648 70.8862C81.7487 70.8835 80.9361 70.7786 80.1462 70.5739L79.9905 70.5309L79.8461 70.4586C74.6245 67.8451 70.2194 64.393 66.753 60.1982C63.8836 56.7054 61.6464 52.7397 60.1422 48.4794C58.3433 43.3788 57.4779 37.9968 57.5872 32.5904C57.5894 32.4769 57.5913 32.3893 57.5913 32.3289C57.5913 29.7008 59.0526 27.3949 61.3141 26.4542C63.0449 25.7342 78.7602 19.2903 79.8956 18.8248C82.034 17.7551 84.3153 18.6479 84.6804 18.804C85.4992 19.1382 100.027 25.0701 103.166 26.5625C106.402 28.1006 107.265 30.8637 107.265 32.2539C107.265 38.5476 106.173 44.4296 104.02 49.7365C102.281 54.0321 99.8159 57.9977 96.7327 61.4606C90.7839 68.1437 84.8335 70.5128 84.7761 70.5337C84.0649 70.778 83.3167 70.8973 82.5648 70.8862ZM81.1654 67.4259C81.6813 67.5414 82.869 67.7146 83.6432 67.4327C84.6266 67.0746 89.607 64.4964 94.261 59.268C100.691 52.0441 103.954 42.9631 103.959 32.2771C103.947 32.0606 103.793 30.5165 101.745 29.5429C98.6663 28.0794 83.5659 21.9154 83.4137 21.8532L83.372 21.8356C83.0555 21.7032 82.0484 21.4244 81.3542 21.7875L81.2152 21.8522C81.0469 21.9212 64.365 28.7611 62.5858 29.5012C61.3413 30.0189 60.8979 31.3013 60.8979 32.3289C60.8979 32.404 60.8959 32.5133 60.8932 32.6544C60.751 39.9662 62.4458 57.958 81.1654 67.4259Z" fill="#3F3D56"/>
<path d="M80.5871 20.3255C80.5871 20.3255 63.7536 27.2275 61.95 27.9777C60.1464 28.7279 59.2446 30.5284 59.2446 32.329C59.2446 34.1295 57.8919 57.6238 80.5871 68.9832C80.5871 68.9832 82.6469 69.5522 84.2097 68.9832C85.7724 68.4143 105.612 58.8115 105.612 32.2539C105.612 32.2539 105.612 29.5531 102.456 28.0527C99.2994 26.5523 84.0393 20.3255 84.0393 20.3255C84.0393 20.3255 82.1652 19.5003 80.5871 20.3255Z" fill="#8AFF99"/>
<path opacity="0.2" d="M82.3907 25.7271V62.5466C82.3907 62.5466 99.3745 54.3853 99.2242 32.9291L82.3907 25.7271Z" fill="black"/>
<path d="M155.811 102H0.188862C0.138773 102 0.0907347 101.98 0.0553163 101.945C0.0198978 101.909 0 101.861 0 101.811C0 101.761 0.0198978 101.714 0.0553163 101.678C0.0907347 101.643 0.138773 101.623 0.188862 101.623H155.811C155.861 101.623 155.909 101.643 155.945 101.678C155.98 101.714 156 101.761 156 101.811C156 101.861 155.98 101.909 155.945 101.945C155.909 101.98 155.861 102 155.811 102Z" fill="#CBCBCB"/>
</g>
<defs>
<clipPath id="clip0">
<rect width="156" height="102" fill="white"/>
</clipPath>
</defs>
</svg>
