<?xml version="1.0" encoding="UTF-8" standalone="no"?>
<svg
   data-name="Layer 1"
   width="557.8147"
   height="330.047"
   viewBox="0 0 407.8147 330.04698"
   version="1.1"
   id="svg28"
   sodipodi:docname="about.svg"
   inkscape:export-filename="/home/nusry/Downloads/about.png"
   inkscape:export-xdpi="96"
   inkscape:export-ydpi="96"
   inkscape:version="1.1.1 (3bf5ae0d25, 2021-09-20)"
   xmlns:inkscape="http://www.inkscape.org/namespaces/inkscape"
   xmlns:sodipodi="http://sodipodi.sourceforge.net/DTD/sodipodi-0.dtd"
   xmlns="http://www.w3.org/2000/svg"
   xmlns:svg="http://www.w3.org/2000/svg">
  <defs
     id="defs32" />
  <sodipodi:namedview
     id="namedview30"
     pagecolor="#efffda"
     bordercolor="#111111"
     borderopacity="1"
     inkscape:pageshadow="0"
     inkscape:pageopacity="1"
     inkscape:pagecheckerboard="false"
     showgrid="false"
     showborder="true"
     inkscape:zoom="1.0813675"
     inkscape:cx="190.96191"
     inkscape:cy="180.7896"
     inkscape:window-width="1920"
     inkscape:window-height="1043"
     inkscape:window-x="0"
     inkscape:window-y="0"
     inkscape:window-maximized="1"
     inkscape:current-layer="svg28"
     viewbox-width="407.8147" />
  <path
     id="a513f258-927a-4de2-b47c-f6d8484aa7b1-375"
     data-name="Path 103"
     d="m 182.36625,148.70671 -0.59552,-0.13429 C 198.27705,75.569885 270.8383,29.770654 343.84083,46.276954 A 135.51952,135.51952 0 0 1 446.05402,148.21084 l -0.59501,0.13532 C 431.40622,86.644115 377.32918,43.549314 313.95318,43.549314 251.40769,43.552314 196.06731,87.775785 182.36625,148.70671 Z"
     fill="#e6e6e6"
     style="stroke-width:0.999995" />
  <path
     id="b48e35fb-0fa9-4a6e-a77a-d5ee8c8a325a-376"
     data-name="Path 104"
     d="M 590.06189,301.55524 H 32.247219 V -15.57273 H 590.06189 Z m -556.781681,-1.033 H 589.02889 V -14.53974 H 33.280209 Z"
     fill="#3f3d56"
     style="fill:none;fill-opacity:0.0549225;stroke-width:0.999995" />
  <circle
     id="f8cef931-c3bb-4037-9a50-1e0fdc7c5e4a"
     data-name="Ellipse 15"
     cx="398.81229"
     cy="84.753738"
     r="31.863613"
     fill="#a0616a"
     style="stroke-width:0.999995" />
  <path
     id="a345d496-be51-4ced-87e4-88917a587ade-379"
     data-name="Path 111"
     d="m 451.78002,151.98218 -17.73149,51.40912 v 0.004 l -8.54547,24.78686 c 0,0 -0.87225,39.41096 -1.74906,39.41096 -0.18173,0 -0.44066,0.56788 -0.73143,1.46285 h -84.90959 l 6.81458,-72.40708 -0.41795,-3.37368 -5.3304,-43.24658 a 21.67297,21.67297 0 0 1 14.32209,-23.0975 l 8.90704,-3.13137 a 70.514183,70.514183 0 0 1 36.41823,-2.77669 h 3e-5 a 70.514116,70.514116 0 0 1 29.75491,13.24964 z"
     fill="#6c63ff"
     style="fill:#e4e4e4;fill-opacity:1;stroke-width:0.999995" />
  <path
     id="a678a244-be81-46d4-9955-cfd6d99b50a8-380"
     data-name="Path 113"
     d="m 426.44425,59.082414 c 0,0 -10.11659,-21.91901 -29.50891,-16.86098 -19.39233,5.05804 -30.34977,12.64587 -31.19269,20.23318 -0.84292,7.587311 0.42146,18.968791 0.42146,18.968791 0,0 2.10782,-15.598141 15.59815,-12.224401 13.49033,3.373751 34.56489,0.842921 34.56489,0.842921 l 3.37219,30.349775 c 0,0 3.79366,-5.480015 8.00877,-2.107825 4.21512,3.372205 12.22493,-32.457061 -1.26386,-39.201461 z"
     fill="#2f2e41"
     style="stroke-width:0.999995" />
  <path
     id="b1de1415-f5bf-440f-a8b8-fa9f905c1360-381"
     data-name="Path 114"
     d="m 468.42121,231.68541 c 0,0 0,20.01212 -7.35519,37.37111 h -25.27298 l 0.22261,-0.58604 7.00539,-30.65649 -2.62586,-10.50809 -6.34662,-23.91006 v -0.004 a 69.897132,69.897132 0 0 1 0.56103,-37.84928 l 0.28733,-0.96629 a 17.613737,17.613737 0 0 1 16.88316,-12.59353 v 0 c 0,0 11.38487,9.6358 10.50809,28.02606 z"
     fill="#6c63ff"
     style="fill:#e4e4e4;fill-opacity:1;stroke-width:0.999995" />
  <path
     id="a9b170f1-abe6-494b-85b0-d8713abcdd5c-385"
     data-name="Path 146"
     d="M 249.69602,149.12507 H 74.669281 a 6.1819294,6.1819294 0 0 0 -6.17315,6.17316 v 67.54102 a 6.1819294,6.1819294 0 0 0 6.17315,6.17573 H 249.69602 a 6.1819294,6.1819294 0 0 0 6.17315,-6.17315 v -67.5436 a 6.1819294,6.1819294 0 0 0 -6.17315,-6.17316 z m 5.44696,73.71469 a 5.4536713,5.4536713 0 0 1 -5.44696,5.44696 H 74.669281 a 5.4536713,5.4536713 0 0 1 -5.44696,-5.44696 v -67.54153 a 5.4536713,5.4536713 0 0 1 5.44696,-5.44697 H 249.69602 a 5.4536713,5.4536713 0 0 1 5.44696,5.44697 z"
     fill="#3f3d56"
     style="stroke-width:0.999995" />
  <path
     id="b6b39a3c-92e5-4d4e-830c-c9cb70ad8092-386"
     data-name="Path 141"
     d="m 239.45754,168.75137 h -91.68923 c -2.66305,0 -4.84989,1.75608 -4.95371,3.96978 a 1.1064616,1.1064616 0 0 0 -0.008,0.16218 c 0.004,2.28084 2.22093,4.12886 4.96146,4.13196 h 91.68923 c 2.74001,0 4.96145,-1.85008 4.96145,-4.13196 0,-2.28188 -2.22092,-4.13196 -4.96145,-4.13196 z"
     fill="#6c63ff"
     style="fill:#8aff99;fill-opacity:1;stroke-width:0.999995" />
  <path
     id="ae94418e-82bb-46b2-bcad-c3c282755a35-387"
     data-name="Path 141-2"
     d="m 239.45754,185.27973 h -91.68923 c -2.66305,0 -4.84989,1.75608 -4.95371,3.96978 a 1.1064616,1.1064616 0 0 0 -0.008,0.16218 c 0.004,2.28084 2.22093,4.12886 4.96146,4.13195 h 91.68923 c 2.74001,0 4.96145,-1.85008 4.96145,-4.13195 0,-2.28188 -2.22144,-4.13196 -4.96145,-4.13196 z"
     fill="#6c63ff"
     style="fill:#8aff99;fill-opacity:1;stroke-width:0.999995" />
  <path
     id="e8feddc1-03fc-4048-aa80-45fc0ee9652e-388"
     data-name="Path 141-3"
     d="m 239.45754,201.80757 h -91.68923 c -2.66305,0 -4.84989,1.75608 -4.95371,3.96978 a 1.1064254,1.1064254 0 0 0 -0.008,0.16218 c 0.004,2.28084 2.22093,4.12886 4.96146,4.13196 h 91.68923 c 2.74001,0 4.96145,-1.85008 4.96145,-4.13196 0,-2.28188 -2.22092,-4.13196 -4.96145,-4.13196 z"
     fill="#6c63ff"
     style="fill:#8aff99;fill-opacity:1;stroke-width:0.999995" />
  <path
     id="bcd0b27f-9e6f-4dd4-9c6b-301806d9c28e-389"
     data-name="Path 140"
     d="m 104.64458,211.10396 a 21.875115,21.875115 0 1 1 21.87512,-21.87511 21.875115,21.875115 0 0 1 -21.87512,21.87511 z m 0,-42.99563 a 21.120516,21.120516 0 1 0 21.12052,21.12052 v 0 a 21.120516,21.120516 0 0 0 -21.12052,-21.12052 z"
     fill="#3f3d56"
     style="stroke-width:0.999995" />
  <path
     id="a4b95a53-3e76-43d9-9905-f39259c2aa97-390"
     data-name="Path 118"
     d="m 187.80649,260.45765 h -18.59382 v -18.59382 h 18.59382 z m -17.56084,-1.03299 h 16.52785 v -16.52785 h -16.52785 z"
     fill="#ff6584"
     style="fill:#8aff99;fill-opacity:1;stroke-width:0.999995" />
  <path
     id="b5224a29-3e2c-47b8-aafd-f30a3a8a6089-391"
     data-name="Path 119"
     d="m 147.09893,254.53087 -6.64264,-6.08845 0.6983,-0.76131 5.75324,5.27445 13.09469,-19.64231 0.85946,0.57331 z"
     fill="#3f3d56"
     style="stroke-width:0.999995" />
  <path
     id="b1af4244-ebcd-4e3e-9659-fd120ece41f1-392"
     data-name="Path 120"
     d="m 153.71781,246.51229 v 12.91237 h -16.52783 v -16.52785 h 12.91237 v -1.03298 h -13.94537 v 18.59382 h 18.59382 v -13.94536 z"
     fill="#e5e5e5"
     style="stroke-width:0.999995" />
  <circle
     id="aed972d3-7bba-44b7-a5d2-fd1675eb4fbc"
     data-name="Ellipse 18"
     cx="96.645111"
     cy="196.15399"
     r="12.137633"
     fill="#6c63ff"
     style="fill:#8aff99;fill-opacity:1;stroke-width:0.999995" />
  <path
     d="m 255.41637,289.42786 a 9.6707553,9.6707553 0 0 1 11.84751,-8.91825 l 18.32503,-29.07339 7.37008,16.26701 -18.53167,25.11468 a 9.7231847,9.7231847 0 0 1 -19.01095,-3.39006 z"
     fill="#a0616a"
     id="path25"
     style="stroke-width:0.999995" />
  <path
     id="b4b1ee8f-44c7-4e6a-b1f2-73ec029b7adc-393"
     data-name="Path 115"
     d="m 351.11009,130.23289 -1.01111,0.17857 c -11.3615,2.00649 -20.99465,9.76418 -24.9728,20.59395 q -0.17897,0.4872 -0.34339,0.97996 l -7.00673,31.52874 -48.1713,91.96354 14.89118,8.75762 c 0,0 41.16454,-48.17129 46.41947,-64.81249 l 21.15931,-40.69201 a 13.187213,13.187213 0 0 0 1.47748,-6.59094 l -1.58621,-41.21653 a 0.72958543,0.72958543 0 0 0 -0.8559,-0.69041 z"
     fill="#6c63ff"
     style="fill:#e4e4e4;fill-opacity:1;stroke-width:0.999995" />
</svg>
